<mxfile host="app.diagrams.net" agent="Mozilla/5.0 (Macintosh; Intel Mac OS X 10_15_7) AppleWebKit/537.36 (KHTML, like Gecko) Chrome/131.0.0.0 Safari/537.36" version="25.0.3">
  <diagram name="第 1 页" id="2YSs2EQmoodFA3bhJk7z">
    <mxGraphModel dx="676" dy="450" grid="0" gridSize="10" guides="1" tooltips="1" connect="1" arrows="1" fold="1" page="1" pageScale="1" pageWidth="827" pageHeight="1169" math="0" shadow="0">
      <root>
        <mxCell id="0" />
        <mxCell id="1" parent="0" />
        <mxCell id="aBK75oIrEW14_ae7VORG-2" value="" style="rounded=0;whiteSpace=wrap;html=1;strokeColor=#F2F2F2;glass=0;shadow=0;" parent="1" vertex="1">
          <mxGeometry x="39" y="446" width="481" height="234" as="geometry" />
        </mxCell>
        <mxCell id="aBK75oIrEW14_ae7VORG-3" value="云" style="rounded=1;whiteSpace=wrap;html=1;fillColor=#1ba1e2;fontColor=#ffffff;strokeColor=none;" parent="1" vertex="1">
          <mxGeometry x="48" y="479" width="34" height="196" as="geometry" />
        </mxCell>
        <mxCell id="aBK75oIrEW14_ae7VORG-4" value="&lt;font style=&quot;font-size: 10px;&quot;&gt;解决方案&lt;/font&gt;" style="text;html=1;align=left;verticalAlign=middle;whiteSpace=wrap;rounded=0;" parent="1" vertex="1">
          <mxGeometry x="88" y="449" width="54" height="26" as="geometry" />
        </mxCell>
        <mxCell id="aBK75oIrEW14_ae7VORG-5" value="&amp;nbsp;组装应用框架" style="rounded=0;whiteSpace=wrap;html=1;fillColor=#f5f5f5;strokeColor=none;fontColor=#333333;align=left;" parent="1" vertex="1">
          <mxGeometry x="88" y="480" width="423" height="194" as="geometry" />
        </mxCell>
        <mxCell id="aBK75oIrEW14_ae7VORG-6" value="&lt;font color=&quot;#b5b5b5&quot; style=&quot;font-size: 6px;&quot;&gt;快速组装一站式AIoT解决方案&lt;/font&gt;" style="text;html=1;align=center;verticalAlign=middle;whiteSpace=wrap;rounded=0;" parent="1" vertex="1">
          <mxGeometry x="88" y="572" width="88" height="30" as="geometry" />
        </mxCell>
        <mxCell id="aBK75oIrEW14_ae7VORG-7" value="&lt;font style=&quot;font-size: 10px;&quot;&gt;平台能力&lt;/font&gt;" style="text;html=1;align=left;verticalAlign=middle;whiteSpace=wrap;rounded=0;" parent="1" vertex="1">
          <mxGeometry x="88" y="479" width="60" height="30" as="geometry" />
        </mxCell>
        <mxCell id="aBK75oIrEW14_ae7VORG-8" value="" style="rounded=0;whiteSpace=wrap;html=1;strokeColor=none;" parent="1" vertex="1">
          <mxGeometry x="177" y="512" width="334" height="162" as="geometry" />
        </mxCell>
        <mxCell id="aBK75oIrEW14_ae7VORG-10" value="&lt;font color=&quot;#007fff&quot;&gt;云溪&lt;/font&gt;&lt;div&gt;&lt;font color=&quot;#007fff&quot;&gt;平台&lt;/font&gt;&lt;/div&gt;" style="rounded=1;whiteSpace=wrap;html=1;dashed=1;dashPattern=1 1;fillColor=#EAF4FC;strokeColor=#6c8ebf;" parent="1" vertex="1">
          <mxGeometry x="525" y="446" width="42" height="302" as="geometry" />
        </mxCell>
        <mxCell id="aBK75oIrEW14_ae7VORG-11" value="&lt;font style=&quot;font-size: 10px;&quot;&gt;企业应用&lt;/font&gt;" style="text;html=1;align=center;verticalAlign=middle;whiteSpace=wrap;rounded=0;" parent="1" vertex="1">
          <mxGeometry x="182" y="517" width="60" height="30" as="geometry" />
        </mxCell>
        <mxCell id="aBK75oIrEW14_ae7VORG-12" value="&lt;font style=&quot;font-size: 10px;&quot;&gt;流程管理&lt;/font&gt;" style="text;html=1;align=center;verticalAlign=middle;whiteSpace=wrap;rounded=0;" parent="1" vertex="1">
          <mxGeometry x="182" y="555" width="60" height="30" as="geometry" />
        </mxCell>
        <mxCell id="aBK75oIrEW14_ae7VORG-13" value="&lt;font style=&quot;font-size: 10px;&quot;&gt;资源管理&lt;/font&gt;" style="text;html=1;align=center;verticalAlign=middle;whiteSpace=wrap;rounded=0;" parent="1" vertex="1">
          <mxGeometry x="182" y="599" width="60" height="30" as="geometry" />
        </mxCell>
        <mxCell id="aBK75oIrEW14_ae7VORG-14" value="&lt;font style=&quot;font-size: 10px;&quot;&gt;规则管理&lt;/font&gt;" style="text;html=1;align=center;verticalAlign=middle;whiteSpace=wrap;rounded=0;" parent="1" vertex="1">
          <mxGeometry x="182" y="644" width="60" height="30" as="geometry" />
        </mxCell>
        <mxCell id="aBK75oIrEW14_ae7VORG-16" value="" style="shape=singleArrow;direction=south;whiteSpace=wrap;html=1;fillColor=#dae8fc;strokeColor=none;arrowWidth=0.4750830564783947;arrowSize=0.5784883720930338;" parent="1" vertex="1">
          <mxGeometry x="211" y="550" width="7" height="8" as="geometry" />
        </mxCell>
        <mxCell id="aBK75oIrEW14_ae7VORG-19" value="" style="shape=singleArrow;direction=north;whiteSpace=wrap;html=1;fillColor=#dae8fc;strokeColor=none;arrowWidth=0.4750830564783947;arrowSize=0.5784883720930338;" parent="1" vertex="1">
          <mxGeometry x="206" y="545" width="7" height="8" as="geometry" />
        </mxCell>
        <mxCell id="aBK75oIrEW14_ae7VORG-20" value="" style="shape=singleArrow;direction=south;whiteSpace=wrap;html=1;fillColor=#dae8fc;strokeColor=none;arrowWidth=0.4750830564783947;arrowSize=0.5784883720930338;" parent="1" vertex="1">
          <mxGeometry x="211" y="590" width="7" height="8" as="geometry" />
        </mxCell>
        <mxCell id="aBK75oIrEW14_ae7VORG-21" value="" style="shape=singleArrow;direction=north;whiteSpace=wrap;html=1;fillColor=#dae8fc;strokeColor=none;arrowWidth=0.4750830564783947;arrowSize=0.5784883720930338;" parent="1" vertex="1">
          <mxGeometry x="206" y="585" width="7" height="8" as="geometry" />
        </mxCell>
        <mxCell id="aBK75oIrEW14_ae7VORG-22" value="" style="shape=singleArrow;direction=south;whiteSpace=wrap;html=1;fillColor=#dae8fc;strokeColor=none;arrowWidth=0.4750830564783947;arrowSize=0.5784883720930338;" parent="1" vertex="1">
          <mxGeometry x="211" y="635" width="7" height="8" as="geometry" />
        </mxCell>
        <mxCell id="aBK75oIrEW14_ae7VORG-23" value="" style="shape=singleArrow;direction=north;whiteSpace=wrap;html=1;fillColor=#dae8fc;strokeColor=none;arrowWidth=0.4750830564783947;arrowSize=0.5784883720930338;" parent="1" vertex="1">
          <mxGeometry x="206" y="630" width="7" height="8" as="geometry" />
        </mxCell>
        <mxCell id="aBK75oIrEW14_ae7VORG-24" value="&lt;font color=&quot;#4a4a4a&quot;&gt;智慧安监&lt;/font&gt;" style="rounded=1;whiteSpace=wrap;html=1;fillColor=#f5f5f5;fontColor=#333333;strokeColor=none;fontSize=8;" parent="1" vertex="1">
          <mxGeometry x="259" y="517" width="51" height="26" as="geometry" />
        </mxCell>
        <mxCell id="aBK75oIrEW14_ae7VORG-25" value="&lt;font color=&quot;#4a4a4a&quot;&gt;数字孪生&lt;/font&gt;" style="rounded=1;whiteSpace=wrap;html=1;fillColor=#f5f5f5;fontColor=#333333;strokeColor=none;fontSize=8;" parent="1" vertex="1">
          <mxGeometry x="326" y="517" width="51" height="26" as="geometry" />
        </mxCell>
        <mxCell id="aBK75oIrEW14_ae7VORG-26" value="&lt;font color=&quot;#4a4a4a&quot;&gt;车辆网&lt;/font&gt;" style="rounded=1;whiteSpace=wrap;html=1;fillColor=#f5f5f5;fontColor=#333333;strokeColor=none;fontSize=8;" parent="1" vertex="1">
          <mxGeometry x="393" y="517" width="51" height="26" as="geometry" />
        </mxCell>
        <mxCell id="aBK75oIrEW14_ae7VORG-27" value="&lt;font color=&quot;#4a4a4a&quot;&gt;可视化BI&lt;/font&gt;" style="rounded=1;whiteSpace=wrap;html=1;fillColor=#f5f5f5;fontColor=#333333;strokeColor=none;fontSize=8;" parent="1" vertex="1">
          <mxGeometry x="460" y="517" width="51" height="26" as="geometry" />
        </mxCell>
        <mxCell id="aBK75oIrEW14_ae7VORG-28" value="&lt;font color=&quot;#4a4a4a&quot;&gt;智能巡检&lt;/font&gt;" style="rounded=1;whiteSpace=wrap;html=1;fillColor=#f5f5f5;fontColor=#333333;strokeColor=none;fontSize=8;" parent="1" vertex="1">
          <mxGeometry x="259" y="557" width="51" height="26" as="geometry" />
        </mxCell>
        <mxCell id="aBK75oIrEW14_ae7VORG-29" value="&lt;font color=&quot;#4a4a4a&quot;&gt;工单管理&lt;/font&gt;" style="rounded=1;whiteSpace=wrap;html=1;fillColor=#f5f5f5;fontColor=#333333;strokeColor=none;fontSize=8;" parent="1" vertex="1">
          <mxGeometry x="326" y="557" width="51" height="26" as="geometry" />
        </mxCell>
        <mxCell id="aBK75oIrEW14_ae7VORG-30" value="&lt;font color=&quot;#4a4a4a&quot;&gt;作业管控&lt;/font&gt;" style="rounded=1;whiteSpace=wrap;html=1;fillColor=#f5f5f5;fontColor=#333333;strokeColor=none;fontSize=8;" parent="1" vertex="1">
          <mxGeometry x="393" y="557" width="51" height="26" as="geometry" />
        </mxCell>
        <mxCell id="aBK75oIrEW14_ae7VORG-31" value="&lt;font color=&quot;#4a4a4a&quot;&gt;智能运维&lt;/font&gt;" style="rounded=1;whiteSpace=wrap;html=1;fillColor=#f5f5f5;fontColor=#333333;strokeColor=none;fontSize=8;" parent="1" vertex="1">
          <mxGeometry x="460" y="557" width="51" height="26" as="geometry" />
        </mxCell>
        <mxCell id="aBK75oIrEW14_ae7VORG-32" value="&lt;font color=&quot;#4a4a4a&quot;&gt;&lt;span&gt;设备管理&lt;/span&gt;&lt;/font&gt;" style="rounded=1;whiteSpace=wrap;html=1;fillColor=#f5f5f5;fontColor=#333333;strokeColor=none;fontSize=8;" parent="1" vertex="1">
          <mxGeometry x="259" y="601" width="51" height="26" as="geometry" />
        </mxCell>
        <mxCell id="aBK75oIrEW14_ae7VORG-33" value="&lt;font color=&quot;#4a4a4a&quot;&gt;人员管理&lt;/font&gt;" style="rounded=1;whiteSpace=wrap;html=1;fillColor=#f5f5f5;fontColor=#333333;strokeColor=none;fontSize=8;" parent="1" vertex="1">
          <mxGeometry x="326" y="601" width="51" height="26" as="geometry" />
        </mxCell>
        <mxCell id="aBK75oIrEW14_ae7VORG-34" value="&lt;font color=&quot;#4a4a4a&quot;&gt;资源监控&lt;/font&gt;" style="rounded=1;whiteSpace=wrap;html=1;fillColor=#f5f5f5;fontColor=#333333;strokeColor=none;fontSize=8;" parent="1" vertex="1">
          <mxGeometry x="393" y="601" width="51" height="26" as="geometry" />
        </mxCell>
        <mxCell id="aBK75oIrEW14_ae7VORG-35" value="&lt;font color=&quot;#4a4a4a&quot;&gt;集群管理&lt;/font&gt;" style="rounded=1;whiteSpace=wrap;html=1;fillColor=#f5f5f5;fontColor=#333333;strokeColor=none;fontSize=8;" parent="1" vertex="1">
          <mxGeometry x="460" y="601" width="51" height="26" as="geometry" />
        </mxCell>
        <mxCell id="aBK75oIrEW14_ae7VORG-36" value="&lt;font color=&quot;#4a4a4a&quot;&gt;&lt;span&gt;算法规则&lt;/span&gt;&lt;/font&gt;" style="rounded=1;whiteSpace=wrap;html=1;fillColor=#f5f5f5;fontColor=#333333;strokeColor=none;fontSize=8;" parent="1" vertex="1">
          <mxGeometry x="259" y="646" width="51" height="26" as="geometry" />
        </mxCell>
        <mxCell id="aBK75oIrEW14_ae7VORG-37" value="&lt;font color=&quot;#4a4a4a&quot;&gt;设备联动&lt;/font&gt;" style="rounded=1;whiteSpace=wrap;html=1;fillColor=#f5f5f5;fontColor=#333333;strokeColor=none;fontSize=8;" parent="1" vertex="1">
          <mxGeometry x="326" y="646" width="51" height="26" as="geometry" />
        </mxCell>
        <mxCell id="aBK75oIrEW14_ae7VORG-38" value="&lt;font color=&quot;#4a4a4a&quot;&gt;功能配置&lt;/font&gt;" style="rounded=1;whiteSpace=wrap;html=1;fillColor=#f5f5f5;fontColor=#333333;strokeColor=none;fontSize=8;" parent="1" vertex="1">
          <mxGeometry x="393" y="646" width="51" height="26" as="geometry" />
        </mxCell>
        <mxCell id="aBK75oIrEW14_ae7VORG-39" value="&lt;font color=&quot;#4a4a4a&quot;&gt;点位设置&lt;/font&gt;" style="rounded=1;whiteSpace=wrap;html=1;fillColor=#f5f5f5;fontColor=#333333;strokeColor=none;fontSize=8;" parent="1" vertex="1">
          <mxGeometry x="460" y="646" width="51" height="26" as="geometry" />
        </mxCell>
        <mxCell id="aBK75oIrEW14_ae7VORG-40" value="" style="line;strokeWidth=1;html=1;dashed=1;dashPattern=1 1;strokeColor=#E6E6E6;" parent="1" vertex="1">
          <mxGeometry x="259" y="545" width="251" height="10" as="geometry" />
        </mxCell>
        <mxCell id="aBK75oIrEW14_ae7VORG-41" value="" style="line;strokeWidth=1;html=1;dashed=1;dashPattern=1 1;strokeColor=#E6E6E6;" parent="1" vertex="1">
          <mxGeometry x="259" y="587" width="251" height="10" as="geometry" />
        </mxCell>
        <mxCell id="aBK75oIrEW14_ae7VORG-42" value="" style="line;strokeWidth=1;html=1;dashed=1;dashPattern=1 1;strokeColor=#E6E6E6;" parent="1" vertex="1">
          <mxGeometry x="260" y="632" width="251" height="10" as="geometry" />
        </mxCell>
        <mxCell id="aBK75oIrEW14_ae7VORG-43" value="&lt;font style=&quot;font-size: 10px;&quot;&gt;大屏&lt;/font&gt;" style="rounded=1;whiteSpace=wrap;html=1;dashed=1;dashPattern=1 1;strokeColor=#EDEDED;fontColor=#333333;" parent="1" vertex="1">
          <mxGeometry x="572" y="446" width="33" height="84" as="geometry" />
        </mxCell>
        <mxCell id="aBK75oIrEW14_ae7VORG-44" value="&lt;font style=&quot;font-size: 10px;&quot;&gt;Web&lt;/font&gt;" style="rounded=1;whiteSpace=wrap;html=1;dashed=1;dashPattern=1 1;strokeColor=#EDEDED;fontColor=#333333;" parent="1" vertex="1">
          <mxGeometry x="572" y="550" width="33" height="85.5" as="geometry" />
        </mxCell>
        <mxCell id="aBK75oIrEW14_ae7VORG-45" value="&lt;font color=&quot;#333333&quot; style=&quot;font-size: 10px;&quot;&gt;APP&lt;/font&gt;" style="rounded=1;whiteSpace=wrap;html=1;dashed=1;dashPattern=1 1;strokeColor=#EDEDED;" parent="1" vertex="1">
          <mxGeometry x="572" y="655" width="33" height="93" as="geometry" />
        </mxCell>
        <mxCell id="aBK75oIrEW14_ae7VORG-46" value="&lt;font color=&quot;#333333&quot;&gt;安全&lt;/font&gt;" style="rounded=0;whiteSpace=wrap;html=1;fillColor=#EAF4FC;strokeColor=none;" parent="1" vertex="1">
          <mxGeometry x="610" y="446" width="38" height="493" as="geometry" />
        </mxCell>
        <mxCell id="aBK75oIrEW14_ae7VORG-47" value="" style="rounded=0;whiteSpace=wrap;html=1;strokeColor=#F2F2F2;glass=0;shadow=0;" parent="1" vertex="1">
          <mxGeometry x="39" y="687" width="481" height="61" as="geometry" />
        </mxCell>
        <mxCell id="aBK75oIrEW14_ae7VORG-48" value="" style="rounded=0;whiteSpace=wrap;html=1;strokeColor=#F2F2F2;glass=0;shadow=0;dashed=1;dashPattern=1 1;" parent="1" vertex="1">
          <mxGeometry x="39" y="756" width="566" height="182" as="geometry" />
        </mxCell>
        <mxCell id="aBK75oIrEW14_ae7VORG-49" value="边" style="rounded=1;whiteSpace=wrap;html=1;fillColor=#1ba1e2;fontColor=#ffffff;strokeColor=none;" parent="1" vertex="1">
          <mxGeometry x="48" y="690" width="34" height="55" as="geometry" />
        </mxCell>
        <mxCell id="aBK75oIrEW14_ae7VORG-50" value="端" style="rounded=1;whiteSpace=wrap;html=1;fillColor=#1ba1e2;fontColor=#ffffff;strokeColor=none;" parent="1" vertex="1">
          <mxGeometry x="48" y="761" width="34" height="172" as="geometry" />
        </mxCell>
        <mxCell id="aBK75oIrEW14_ae7VORG-51" value="&lt;font color=&quot;#4a4a4a&quot;&gt;&lt;span&gt;边云协同框架&lt;/span&gt;&lt;/font&gt;" style="rounded=1;whiteSpace=wrap;html=1;fillColor=#f5f5f5;fontColor=#333333;strokeColor=#DEDEDE;dashed=1;dashPattern=1 1;fontSize=8;" parent="1" vertex="1">
          <mxGeometry x="140" y="695.13" width="86" height="44.75" as="geometry" />
        </mxCell>
        <mxCell id="aBK75oIrEW14_ae7VORG-52" value="&lt;font style=&quot;font-size: 10px;&quot;&gt;边云协同&lt;/font&gt;" style="text;html=1;align=left;verticalAlign=middle;whiteSpace=wrap;rounded=0;" parent="1" vertex="1">
          <mxGeometry x="88" y="702.5" width="60" height="30" as="geometry" />
        </mxCell>
        <mxCell id="aBK75oIrEW14_ae7VORG-53" value="&lt;font color=&quot;#4a4a4a&quot;&gt;&lt;span&gt;边缘智能平台&lt;/span&gt;&lt;/font&gt;" style="rounded=1;whiteSpace=wrap;html=1;fillColor=#f5f5f5;fontColor=#333333;strokeColor=#DEDEDE;dashed=1;dashPattern=1 1;fontSize=8;" parent="1" vertex="1">
          <mxGeometry x="236" y="695.13" width="88" height="44.75" as="geometry" />
        </mxCell>
        <mxCell id="aBK75oIrEW14_ae7VORG-54" value="&lt;font color=&quot;#4a4a4a&quot;&gt;&lt;span&gt;边缘计算软件&lt;/span&gt;&lt;/font&gt;" style="rounded=1;whiteSpace=wrap;html=1;fillColor=#f5f5f5;fontColor=#333333;strokeColor=#DEDEDE;dashed=1;dashPattern=1 1;fontSize=8;" parent="1" vertex="1">
          <mxGeometry x="335" y="695.13" width="81" height="44.75" as="geometry" />
        </mxCell>
        <mxCell id="aBK75oIrEW14_ae7VORG-55" value="&lt;font color=&quot;#4a4a4a&quot;&gt;&lt;span&gt;边缘计算安全&lt;/span&gt;&lt;/font&gt;" style="rounded=1;whiteSpace=wrap;html=1;fillColor=#f5f5f5;fontColor=#333333;strokeColor=#DEDEDE;dashed=1;dashPattern=1 1;fontSize=8;" parent="1" vertex="1">
          <mxGeometry x="426.5" y="695.13" width="84.5" height="44.75" as="geometry" />
        </mxCell>
        <mxCell id="aBK75oIrEW14_ae7VORG-56" value="&lt;font color=&quot;#4a4a4a&quot;&gt;&lt;span&gt;图像&lt;/span&gt;&lt;/font&gt;" style="rounded=1;whiteSpace=wrap;html=1;fillColor=#f5f5f5;fontColor=#333333;strokeColor=none;fontSize=8;" parent="1" vertex="1">
          <mxGeometry x="116" y="802" width="51" height="26" as="geometry" />
        </mxCell>
        <mxCell id="aBK75oIrEW14_ae7VORG-57" value="&lt;font color=&quot;#4a4a4a&quot;&gt;&lt;span&gt;视频&lt;/span&gt;&lt;/font&gt;" style="rounded=1;whiteSpace=wrap;html=1;fillColor=#f5f5f5;fontColor=#333333;strokeColor=none;fontSize=8;" parent="1" vertex="1">
          <mxGeometry x="179" y="802" width="51" height="26" as="geometry" />
        </mxCell>
        <mxCell id="aBK75oIrEW14_ae7VORG-58" value="&lt;font color=&quot;#4a4a4a&quot;&gt;&lt;span&gt;红外&lt;/span&gt;&lt;/font&gt;" style="rounded=1;whiteSpace=wrap;html=1;fillColor=#f5f5f5;fontColor=#333333;strokeColor=none;fontSize=8;" parent="1" vertex="1">
          <mxGeometry x="116" y="835" width="51" height="26" as="geometry" />
        </mxCell>
        <mxCell id="aBK75oIrEW14_ae7VORG-59" value="&lt;font color=&quot;#4a4a4a&quot;&gt;&lt;span&gt;噪音&lt;/span&gt;&lt;/font&gt;" style="rounded=1;whiteSpace=wrap;html=1;fillColor=#f5f5f5;fontColor=#333333;strokeColor=none;fontSize=8;" parent="1" vertex="1">
          <mxGeometry x="179" y="835" width="51" height="26" as="geometry" />
        </mxCell>
        <mxCell id="aBK75oIrEW14_ae7VORG-60" value="&lt;font color=&quot;#4a4a4a&quot;&gt;&lt;span&gt;电流&lt;/span&gt;&lt;/font&gt;" style="rounded=1;whiteSpace=wrap;html=1;fillColor=#f5f5f5;fontColor=#333333;strokeColor=none;fontSize=8;" parent="1" vertex="1">
          <mxGeometry x="116" y="869" width="51" height="26" as="geometry" />
        </mxCell>
        <mxCell id="aBK75oIrEW14_ae7VORG-61" value="&lt;font color=&quot;#4a4a4a&quot;&gt;&lt;span&gt;电压&lt;/span&gt;&lt;/font&gt;" style="rounded=1;whiteSpace=wrap;html=1;fillColor=#f5f5f5;fontColor=#333333;strokeColor=none;fontSize=8;" parent="1" vertex="1">
          <mxGeometry x="179" y="869" width="51" height="26" as="geometry" />
        </mxCell>
        <mxCell id="aBK75oIrEW14_ae7VORG-62" value="&lt;font color=&quot;#4a4a4a&quot;&gt;&lt;span&gt;微气象&lt;/span&gt;&lt;/font&gt;" style="rounded=1;whiteSpace=wrap;html=1;fillColor=#f5f5f5;fontColor=#333333;strokeColor=none;fontSize=8;" parent="1" vertex="1">
          <mxGeometry x="116" y="902" width="51" height="26" as="geometry" />
        </mxCell>
        <mxCell id="aBK75oIrEW14_ae7VORG-63" value="&lt;font color=&quot;#4a4a4a&quot;&gt;&lt;span&gt;危险气体&lt;/span&gt;&lt;/font&gt;" style="rounded=1;whiteSpace=wrap;html=1;fillColor=#f5f5f5;fontColor=#333333;strokeColor=none;fontSize=8;" parent="1" vertex="1">
          <mxGeometry x="179" y="902" width="51" height="26" as="geometry" />
        </mxCell>
        <mxCell id="aBK75oIrEW14_ae7VORG-64" value="&lt;font color=&quot;#4a4a4a&quot;&gt;&lt;span&gt;AI巡视&lt;/span&gt;&lt;/font&gt;" style="rounded=1;whiteSpace=wrap;html=1;fillColor=#f5f5f5;fontColor=#333333;strokeColor=none;fontSize=8;" parent="1" vertex="1">
          <mxGeometry x="293" y="802" width="51" height="26" as="geometry" />
        </mxCell>
        <mxCell id="aBK75oIrEW14_ae7VORG-65" value="&lt;font color=&quot;#4a4a4a&quot;&gt;&lt;span&gt;负荷分解&lt;/span&gt;&lt;/font&gt;" style="rounded=1;whiteSpace=wrap;html=1;fillColor=#f5f5f5;fontColor=#333333;strokeColor=none;fontSize=8;" parent="1" vertex="1">
          <mxGeometry x="356" y="802" width="51" height="26" as="geometry" />
        </mxCell>
        <mxCell id="aBK75oIrEW14_ae7VORG-66" value="&lt;font color=&quot;#4a4a4a&quot;&gt;&lt;span&gt;外观检测&lt;/span&gt;&lt;/font&gt;" style="rounded=1;whiteSpace=wrap;html=1;fillColor=#f5f5f5;fontColor=#333333;strokeColor=none;fontSize=8;" parent="1" vertex="1">
          <mxGeometry x="293" y="835" width="51" height="26" as="geometry" />
        </mxCell>
        <mxCell id="aBK75oIrEW14_ae7VORG-67" value="&lt;font color=&quot;#4a4a4a&quot;&gt;&lt;span&gt;表计识别&lt;/span&gt;&lt;/font&gt;" style="rounded=1;whiteSpace=wrap;html=1;fillColor=#f5f5f5;fontColor=#333333;strokeColor=none;fontSize=8;" parent="1" vertex="1">
          <mxGeometry x="356" y="835" width="51" height="26" as="geometry" />
        </mxCell>
        <mxCell id="aBK75oIrEW14_ae7VORG-68" value="&lt;font color=&quot;#4a4a4a&quot;&gt;&lt;span&gt;碳计量&lt;/span&gt;&lt;/font&gt;" style="rounded=1;whiteSpace=wrap;html=1;fillColor=#f5f5f5;fontColor=#333333;strokeColor=none;fontSize=8;" parent="1" vertex="1">
          <mxGeometry x="293" y="869" width="51" height="26" as="geometry" />
        </mxCell>
        <mxCell id="aBK75oIrEW14_ae7VORG-69" value="&lt;font color=&quot;#4a4a4a&quot;&gt;&lt;span&gt;水位分析&lt;/span&gt;&lt;/font&gt;" style="rounded=1;whiteSpace=wrap;html=1;fillColor=#f5f5f5;fontColor=#333333;strokeColor=none;fontSize=8;" parent="1" vertex="1">
          <mxGeometry x="356" y="869" width="51" height="26" as="geometry" />
        </mxCell>
        <mxCell id="aBK75oIrEW14_ae7VORG-70" value="&lt;font color=&quot;#4a4a4a&quot;&gt;&lt;span&gt;碳分析&lt;/span&gt;&lt;/font&gt;" style="rounded=1;whiteSpace=wrap;html=1;fillColor=#f5f5f5;fontColor=#333333;strokeColor=none;fontSize=8;" parent="1" vertex="1">
          <mxGeometry x="293" y="902" width="51" height="26" as="geometry" />
        </mxCell>
        <mxCell id="aBK75oIrEW14_ae7VORG-71" value="&lt;font color=&quot;#4a4a4a&quot;&gt;&lt;span&gt;人/车/非识别&lt;/span&gt;&lt;/font&gt;" style="rounded=1;whiteSpace=wrap;html=1;fillColor=#f5f5f5;fontColor=#333333;strokeColor=none;fontSize=8;" parent="1" vertex="1">
          <mxGeometry x="356" y="902" width="51" height="26" as="geometry" />
        </mxCell>
        <mxCell id="aBK75oIrEW14_ae7VORG-72" value="&lt;font color=&quot;#4a4a4a&quot;&gt;&lt;span&gt;云台动作&lt;/span&gt;&lt;/font&gt;" style="rounded=1;whiteSpace=wrap;html=1;fillColor=#f5f5f5;fontColor=#333333;strokeColor=none;fontSize=8;" parent="1" vertex="1">
          <mxGeometry x="468" y="802" width="51" height="26" as="geometry" />
        </mxCell>
        <mxCell id="aBK75oIrEW14_ae7VORG-73" value="&lt;font color=&quot;#4a4a4a&quot;&gt;&lt;span&gt;机器狗巡检&lt;/span&gt;&lt;/font&gt;" style="rounded=1;whiteSpace=wrap;html=1;fillColor=#f5f5f5;fontColor=#333333;strokeColor=none;fontSize=8;" parent="1" vertex="1">
          <mxGeometry x="531" y="802" width="51" height="26" as="geometry" />
        </mxCell>
        <mxCell id="aBK75oIrEW14_ae7VORG-74" value="&lt;font color=&quot;#4a4a4a&quot;&gt;&lt;span&gt;门禁开闭&lt;/span&gt;&lt;/font&gt;" style="rounded=1;whiteSpace=wrap;html=1;fillColor=#f5f5f5;fontColor=#333333;strokeColor=none;fontSize=8;" parent="1" vertex="1">
          <mxGeometry x="468" y="835" width="51" height="26" as="geometry" />
        </mxCell>
        <mxCell id="aBK75oIrEW14_ae7VORG-75" value="&lt;font color=&quot;#4a4a4a&quot;&gt;&lt;span&gt;无人机巡检&lt;/span&gt;&lt;/font&gt;" style="rounded=1;whiteSpace=wrap;html=1;fillColor=#f5f5f5;fontColor=#333333;strokeColor=none;fontSize=8;" parent="1" vertex="1">
          <mxGeometry x="531" y="835" width="51" height="26" as="geometry" />
        </mxCell>
        <mxCell id="aBK75oIrEW14_ae7VORG-76" value="&lt;font color=&quot;#4a4a4a&quot;&gt;&lt;span&gt;开关分合&lt;/span&gt;&lt;/font&gt;" style="rounded=1;whiteSpace=wrap;html=1;fillColor=#f5f5f5;fontColor=#333333;strokeColor=none;fontSize=8;" parent="1" vertex="1">
          <mxGeometry x="468" y="869" width="51" height="26" as="geometry" />
        </mxCell>
        <mxCell id="aBK75oIrEW14_ae7VORG-77" value="&lt;font color=&quot;#4a4a4a&quot;&gt;&lt;span&gt;机械臂操作&lt;/span&gt;&lt;/font&gt;" style="rounded=1;whiteSpace=wrap;html=1;fillColor=#f5f5f5;fontColor=#333333;strokeColor=none;fontSize=8;" parent="1" vertex="1">
          <mxGeometry x="531" y="869" width="51" height="26" as="geometry" />
        </mxCell>
        <mxCell id="aBK75oIrEW14_ae7VORG-78" value="&lt;font color=&quot;#4a4a4a&quot;&gt;&lt;span&gt;音频播放&lt;/span&gt;&lt;/font&gt;" style="rounded=1;whiteSpace=wrap;html=1;fillColor=#f5f5f5;fontColor=#333333;strokeColor=none;fontSize=8;" parent="1" vertex="1">
          <mxGeometry x="468" y="902" width="51" height="26" as="geometry" />
        </mxCell>
        <mxCell id="aBK75oIrEW14_ae7VORG-79" value="&lt;font color=&quot;#4a4a4a&quot;&gt;&lt;span&gt;储能充放电&lt;/span&gt;&lt;/font&gt;" style="rounded=1;whiteSpace=wrap;html=1;fillColor=#f5f5f5;fontColor=#333333;strokeColor=none;fontSize=8;" parent="1" vertex="1">
          <mxGeometry x="531" y="902" width="51" height="26" as="geometry" />
        </mxCell>
        <mxCell id="aBK75oIrEW14_ae7VORG-80" value="" style="line;strokeWidth=1;html=1;dashed=1;dashPattern=1 1;strokeColor=#E6E6E6;direction=south;" parent="1" vertex="1">
          <mxGeometry x="257" y="803" width="10" height="125" as="geometry" />
        </mxCell>
        <mxCell id="aBK75oIrEW14_ae7VORG-81" value="" style="line;strokeWidth=1;html=1;dashed=1;dashPattern=1 1;strokeColor=#E6E6E6;direction=south;" parent="1" vertex="1">
          <mxGeometry x="434" y="803" width="10" height="125" as="geometry" />
        </mxCell>
        <mxCell id="aBK75oIrEW14_ae7VORG-82" value="&lt;font style=&quot;font-size: 10px;&quot;&gt;全频段感知&lt;/font&gt;" style="text;html=1;align=center;verticalAlign=middle;whiteSpace=wrap;rounded=0;" parent="1" vertex="1">
          <mxGeometry x="142" y="761" width="60" height="30" as="geometry" />
        </mxCell>
        <mxCell id="aBK75oIrEW14_ae7VORG-83" value="&lt;font style=&quot;font-size: 10px;&quot;&gt;智能分析&lt;/font&gt;" style="text;html=1;align=center;verticalAlign=middle;whiteSpace=wrap;rounded=0;" parent="1" vertex="1">
          <mxGeometry x="321.5" y="761" width="60" height="30" as="geometry" />
        </mxCell>
        <mxCell id="aBK75oIrEW14_ae7VORG-84" value="&lt;font style=&quot;font-size: 10px;&quot;&gt;反馈控制&lt;/font&gt;" style="text;html=1;align=center;verticalAlign=middle;whiteSpace=wrap;rounded=0;" parent="1" vertex="1">
          <mxGeometry x="494" y="761" width="60" height="30" as="geometry" />
        </mxCell>
        <mxCell id="xsJzfTvv46yiWeYfg1Ty-1" value="" style="shape=image;verticalLabelPosition=bottom;labelBackgroundColor=default;verticalAlign=top;aspect=fixed;imageAspect=0;image=data:image/png,iVBORw0KGgoAAAANSUhEUgAAAKEAAACgCAYAAABkDQwTAAABT2lDQ1BJQ0MgUHJvZmlsZQAAKJF1kD9IQnEUhT9TEUSyoSHCwSGiQSPMoakwhwgaxDSq7fk0DUxfT6PcpalFaK7AxsaoVZrag+gP7e2Bi8rr/rRSiy5c7sfhcLgcGHFohpF3AHuFshlfWfZvbm37Xe948DHKNHZNLxmRWGxNLHzf4Wk+YlP3Iaiynr3taivZmXQ22hvni1fuv/6hcaczJV1uWzagG2YZbDPCscOyofhIeNyUp4RPFGd7fKE41ePrricRjwrfC4/pOS0t/KQyUwN6doD38gf61w/qe0+mkFxXuqyPBCHC7FMiKDT3jzfc9UYpYlDBZJcsOcr4iYhikCcjvEoBnVkCwpKlklXHv7vra8VLWGiCvdbXUqdwewwTL31t6gy8Vbi5MzRT+2nU1nSUduZDPfYsgfPNsj6kU1cNOjXLatUtq1OX/FdoVD4B1oJkDpipzOEAAAA4ZVhJZk1NACoAAAAIAAGHaQAEAAAAAQAAABoAAAAAAAKgAgAEAAAAAQAAAKGgAwAEAAAAAQAAAKAAAAAAA4Lw8AAAHtdJREFUeAHtXQecFEXWf5tzAnbJy5JhCUtOkgQRFFG8U0TlE9FTUdRTj0NR9DOceN6h6J2fmMBD5UQFRUSy5EVyWoJkJCxhl4XNeferN9A7VTXT09Pd1Tszu/V+v/l1VXXV6+rX/6n46j2/SkIgSUrAgxLw9+Cz5aOlBGwSkCCUQPC4BCQIPf4JZAUkCCUGPC4BCUKPfwJZAQlCiQGPS0CC0OOfQFZAglBiwOMSkCD0+CeQFZAglBjwuAQCPV4DWQGbBCrI5mlxSSUUl1ZCEV6vh/FaRNLqxwVAAvmFBvvVOIlJEHrgk55IL4OjZ0vh6Bnyu349m1HmVk1iIvwhoU5AFSgRnJ1bBkO7ZkFQNybALR7elslPKjBY+0kKiith/e5C2Hm4BI4Q0B0+XQqFxRWWPDSpQRB0bBkEbZoGQVvy69sx1JLniGYqQShaotf5bdpXBOt2468QLl0pt+gprtl2Ii3kiN7hMLxXmK0rd53bc3clCAXLfv2eIliwNh/W7ykUzNk4u2jShQ/vRcDYOwx6tQ8xzsiikhKEggR74GQJfLI4F9bu0gZfSJAfNEkIhCbxgZBYPxCSGl77hZL0EDLxwMmH7UrFr+RWAP6u5pbbrlfyrsVxXLmfPPvsJffGlIO6hMFdN0bAoC7e01VLEAoA4acEfJ/8lGOb0aqxw48/rGcYdGgeBM0aBEJggNhZ7oWscjhIwHjgZCn5lcDm/UVqVbGlexMYJQhdfirXN/FDIwB3Hi52mjGpYZANeMN6hNlmr04zWZS4/0QJrNxeCCu3FUJ6pnoriWB8aGQUdG0TbFFNtNlKEGrLyCEHrum9Oz8bvlie63APE/qRWemdgyJsAPQX2+A5fZ6rxEIyO78GxgLYuNd56xhMuv1n7o6BccMjXbGy7J4EoU7R4ked+lEWrHEy9sOW74ERkXDX4AidXKsn+7ItBTBvZR7sO17i9IEj+4bDn8fEQAOyDlmdJEGoQ9o4MUAA8uMtbEnGj4iyATAm0vt3QhGIX5HfOScL5PhHeubuaBjSPUyHZMxllSB0U34XLpfD8wSAu4+w47/OrYLhpQfioD3ZsfAlysqpgNk/58KXKkOK58bGwIO3RFXLK0kQuiHmU+fL4PlZWXDod7Yb69EuBN55si7ERXl/66f2mjhOxKWlvcfYPxfmHzMkEqaNj1UrKixdglBDlBVkh+3hv2c4zIARgHOmxmuU9o3bpWWVNiB+/GOOQ4UHdw2Dfz1T1yFdZILv/oVFSsEFr//7PqdGAxBfPSjQDyb9IRpmTHIEG247TpyR6UJC5m9JELqQIe7/fkoWoWmqEx1QY1pA+r0wfDPZY37/z/X4ZNicVgSzfmDl4JDJRIIEoYrwCooqAVtBnr6YVjO6YP69lPiN3UJh8d8bKNGq66xFObBgXX5VXGRAglBFmghA3P6i6dWH4mx7vXRaTQzjXva+uU0cXu31z6/A0l8LHNLNJkgQOpEgLuZ+uYLdDXnqrhj4A9kFqU30y/sNHV73f+dcge2/Oc6kHTLqSJAgdCKs+b/kMam4FvjIqOpZM2Me7OFIfGwAzH8tgakFHjf4+1dX4aJAHUkJQkbEAFsPFsOSVLbLGTvUM3uqXNU8Ek1OCoZ/P8tOVlB9DIEoiiQIOUl+w7WCfTqEwm39wrlctSuKuofPkj1lmn7ZUQgzv82mkwyHJQgp0eHuwWoiXJrGDq1d40D63enwBKLuhUcFaPqcbPvx8qLvuxuWIKQkxWtFoyp8dW7kU1XxyuAzpDVEhVyaPliYA5nZ5s7QSBBel2hOfgVRzWf17YZz/3xa+LUx3KheACAQaTqRXup0PZXOoxWWILwuIQTg5Rz7P7o+0akbQQ4GSWIlMJSoeN05kB2iLCSL2Is3sZM5tpTrmAThdfnwSqo4/okK923xpF5IgwNXTrlGgIG7E26NgthIVvH1mzXsspYetr4tZT1v6iIvngvmx4N4LsSX6cdTqTBq+Usw4MenYeLGd4W+Cu6oTBjJLlulkQV+o7spEoTk8+ChIJpw8I0L1L5KuaUF8MqOOVXV//b4Onhx22dVcREBbA07NGdltGijsS5ZgpB8kf3kmCRNXdt43wFxun5a4YUnNsCZvAwm20cHF8Pbe75m0sxGxgxhx4ZbDlyzOqGXrwQhkdgxYpSIpm6t2X84fc8Xwt+f3OC0mh/s/0HoGBEnKF1bs3/YRRv1a9qwiz5Oq+69iWeI1QE89G2W0DKWQnhoqTGxjmBkkx4tZqExIk/S2vQ9sOnCfqdVyC8rAgTirAHPOr1vJHEMWczffdSu0LBmZyFsP1QMPXWYG/FJEC7akA+fL82Dk+ft4DEiQGdlSogtwIffYrsyZ/nU0tCGYL9OoTB1XCyEhVT/oWO+FbypSXdYfXZnVXW/Ob4WRjbrA7cl9q1KMxPAY6KLNhSQPXf7GiuODfWA0Oe640f/kQmvzL5iCQDNfAylLM608U/S+9FzNpsxSnp1XFcRsM07upp51PMp98J9rYYyadgaiiR+bPhTar6DLqar5/kUCGcvyQUc/PoK/WuBmA1+d963gvjJnLnvWybro+1vg+7xbeCZTndBeKB97Lbt0m/w1dFVTF4zEbSx078za2AJzY+4Sz7VHf9Cxhs0hYf6Q3KSZ8dgdH3wcPzxc/YhAu4kjLs5Elo2tr6OCMAtlw5VVScuJAqe7vRHW7xVTGN4quMfmNkxtpjjWg+rym82cA85HopnchRaRRRB8PAUjrG1yKdAeOYia9hnztR6BITeNZN9iIwnd1Cax3uPlVgOwt2Zx+DdtO+Yb/0saf0ahdtPz41vMxzmHlkBFwqybPm2EsDiUs4fWwxkyhmNDOoaapuUoTVaJDRVt4oYZBrphhqcT3XH2UTJgCZvAyDWrSc5j0zTRQGzd5qfs/DMtG+hsMy+4J5StyU8ljyKydogvA4gEGkS2SUj3xu7sbtMCEJ3yKdA6M4L1bY82Lot+X0L89ovdLkPgvwdOzkEIYJRofXn98LPp9myyj0jV17tDffjlZbRFT8JQlfS8fJ7J3PPw7vcZAQnIcOb9nRac6tbQ7THwxtrd6c1lCB0+rl8I/Hl7XOY7bl+9TvAS93ud1n5e1reSFpJuwbMijPb4Vj2OZdl9NwcYqBLliDUI2Evyvu3XV/C0tNbq2oU6O8PL3YbBwF+doBV3aQCSVEN4JamvakUgBVntzNxM5Eh3UMhIswOK1R61dp9chw4mKmBwLK41IEzS1cDeytNUwh8FWLJv8i2lIRHKEXQwhPrSTfMzoZf7DoOsCV0h25J7A2Lf99clXXV2R0wqcPoqriZAL4jWqpdtd2uUbMDt/G4CRv9DK8DIa614SIvrrFpEZqm8Hai64gWXF+ZEGeqyqikOo10wzSNIGNAHAu6S9gS1g+Lg4uFV2xFNpzfR7r1S9A0MsFdFi7zdWoRREBoz4It4eP2qEPI3m463Kr+BDTFO+jJdLcAWP21M/9EtOXyDrF1bZTKKyvg5e2zq8CDfHCy8VK3/9HFMjo4HLA1pGnJ77/SUVNhXhUO103x26qRV4HwLYEHqtVe2NPpc5flwlJiO9oI4URkXfpepuibPR+GDnFJTJo7EX5c+NNpcSBMIQrBvNlkNCqgRl7VHaMJMprQEKWrsQSd15vD3xIPT5epY5E4Rrq1D3uGV6v+XxxZCaiYStOULmPhzuYD6CS3wz3i20JwQCCUlF/bhdpy8SBkFF6F+DAxllm7ED1D9Omn0B6i7jWY7Ko4I68BIS5q0j7g2iYG1xg7gI2I56aXP722XYYfIZ3Yv9ZD2zN+s3XDdJk7km4AXJQ2SnEhkdClbitAZQaFUi/uh9FJ/ZWoqSsqBtMgPO3C45TXdMf8llxUuPbGtykpVWNhPK9LE+osuksnctLhuc0fQm6pvVVpF5sI2A2bpRQCQpoOkkmPKOIPyZ+5qP7H8xoQinr5msQnqzgXHiMn5ehjm/5+fvBmr4ehUQRrpMjIe/eKb8cUO3jldyZuJpLIWWpALXg1kiBUk4wXpI9f+xbszDjC1ORvpAW8sVFXJs1opG/9ZKao0JaQOI6kqaCogoyLWQUU5b4EoSIJL7uOWfUqpHJnRR5sOxwmJt8urKbYmjaLql/F71TuRSgg51BEEBpjb1SPBaJaayhBKELignk8sHY6rD63i+GKSgkz+jzBpImIdKrTgmEjskt2GBeqdMkShMwn8Hzk0Q3vOKhmYbc5Z9AUwPGgFqGi6pOb3oevj/2ildV2vznZS6bJyi75NKeUrDyXbS+VVHn1iAQmb5kFC8i+ME3Jcc1g3tBpEBbIKsvSeZTwiZzzMHXbp5BZlA3/JSDEK6r1u6LmUQ2Z27IlZMRRuyKokDDnt2XMSzeJiIeFN78OscGs3RcmExXZc/moDXhKEiomaJGlLSE3Q1ZTRpEtocpXQkfa6J09kCzxqV0DnNxXYecyef6xNYCqWTRFB4XDklum2xQN6HRX4aOcXmBHbrznrGxSNNsS0uuRzvLrSYvmrJoVEaPrzsgnQYhGu/+7ypgpMpyx3dE/HB6/M9qZPGyei2jNF6eZXCSipsyfRkWTmSG7QK1WBFXsn9j0nsPtVbfNgMRI+8zVIYOTBF45tVOd5k5ysUnNyDNwrIlHRpHyqEVxNqf+WCh3+F8NhD43MUG1IKMARDGmZ5aBK5CZ9VqE5bWUOJXPidtxd654WYlWXTfc/j60jmlSFXc3cDTnLJPVnZYQC9DjQrToJYpCg9mJVLHKTpHPgTAilH0xUQJT+KDShFmKdcPxdlrWCRj+8xSHR60a+U/o6EYL5lCQJBhpCZFPQ+rwk9CWkAOhWkvoc90xHvP88C/1bH401Kb8zj6QkoaWAl4gdmLUCM3hBpOF1jPEK3o52e4sK68kP+VKh6+l8Xlu7hWueSA/N/A8DFo8zaEKP42YTiwmtHVIdyfhONljLiizq0u50xU744s8UG8xwM98++TQEtakMSECack/2PUtZwI1koaeLvFnFZWFXoZf4h274AXDXoMbGnQ0/Nij2WxXzC9C62GMXbK7M3JXfHkQqrWE5uHuqhbyHiOB8uAcuNDXEYDzhr4EQxqb2w8+woHQaJeOFRbVJQeSHoUm7FGckQShM6lYkFYRWADnb3jBgfOcwVMcTr85ZHIjYV36biaX0e4YmYhapuFV1kJUTPJIEDKfzppISUUppA+Y7MD8wwHPCFEiPV9wmVH7DyTnivu4efLOoVIkIU/QDBmdMdIUomIcSYKQlpJF4VHbHDWgZ/abBGNbDhHyxOVntjF8BjdMMTexYLHD8NYT4Zdk1Cx0SRDqkaqBvJ2/e8ih1J8aT3AwTuSQSUcCD8JeCe11lHbMGhEkZmLGg1CtJfS5JRpHkXlvyiPrZ8DZ/Eymgq/2eBCe7ngnk2Ymsj/rJKCFVpq6EcOYeqiw3G7RC8tFWgRC2RLq+SoC8n566GdYyFnRn9r1PgJA11oteh/NW9XqSdYZh+jUvD6enc48VhQIHScm7GxZeajsjhVJCLwuJebWnt/6McPx/tY3wV9TxjJpIiI8CPUeAb1clANXS9h9eFEgLGYbWFWrrRKEIpBA8diRcRjGrZlOpRDDmaR1+vcNTzNpIiJoUQu7Y4XqEBPBekF4PIe1yIVmhoOd2DZUnqHnmlvAnimJCJMtoR75GcqLXpQmcRoxMcER8MPwvxnip1Vo7pHlTBYEINqY0UO43UdTC061i76nN0x7TcWyDYjnVGfkkxMT3DP+ebMxbQ88iD64S6iDmQpaOGjta+eRkmu6hP7XdAp53cEARc+Q9CWobwgBZfBN8XtwtIxtWX4Y/gZjOZ9+jpkwtoLLyY8m7PL1kgMIoxrpZaGanz9d16BuDQLhbVMuqL64OzdQU2bO1HinWZ+aeZmYcit0es9VYnbL7yE3MY3J8tGA52xWDphEQRG+FURTwGhRQS85gNDSltB5m+dzY0IRNgnRSpSazh/tYszdD1oce4QAcDWT/bnOd8OYloOZNFGRZcQ4Jt8KjifHQY2QlSDM5M4Zq3XHPgdCNY1oPR9gUJcwVUNLNxnwc5zbbCXz+FZ+XWGaTnNtDAMXEVSzem//QiaH0VYQmfATEzQxIopoI1DIs0Z1x/vmNrGp4RsRViKxDODKt8bke2PgvmGRNj8cNl1CMsHDK683qMQ35q2Fr68eZKryj2HiFqMZxiTyftpC2E4ZMQoNCIIJbUfw2dyK77l8jHE9ERkUCmZUwPiHXs5hZ8dqLaHzTprn5oVxES2i2mvh+RB3z4h8sSyVYYN+5AY36sKkiYqgTZr30xYw7J4gZn47E78lRmgd8QhKkxmlB5qPEqZbwtioAOD1C5V8PtcdKxX3hivafUa7fgqhVfxHiD85qwgBSKtZtSbuwszYmka3tDTxBpLoe3rD+YWVkEM5P1JrBZGvBKFe6VL5eSsHCED0pmQF/efwcnIwfgPDGltBXFw2Qtkl+bCR2KqmyWiLSvNQwmkn2O2SJO4MspIPrxKEtDR0hFGHD9fqFEogFk4fbc+68lLumb3uzDwCr+78D8MGNbF5N2FMBo1I6gV2OQmzi/wD7edA2I442lEjCUI1yWik046sMSvagE4UZP2efnRpRRm8uuM/kFNiX5xHl2F/6TyGzqY7zHuHR+fcendbXD30wEm2JWyXKEHoSl6G7q0+x6pPWTUZQQDyJuKmEac5fU1oTuMLbyCH7mm6qXF3Omo6zPu0a9csWJWnbAlVReP6xqlcdtcGbUiLpvnH18Aszlj6qGb9NI0cadUjjSg98IaPRILwAvFsStsibJoQCHWi1aGmfkfrTWr5fbR4pVBjAaZ7FV7KFU20YStIU0Piv/g9cizALPHjQeyKRSou8F1xm6bqXTG+iwShwS+aSfTwFKKdWytpZq8IwEvEpQNNr/YYb3g2TPP58RS7timyFcTnHDl9zfG28kwJQkUSgq/1Qu0Glei1OxGPeWPXFw6WWnFX5O4Wg02zX3ZmK6DXd4XQb8moZn2VqJArPx5s42JSgg+ULaFBsaO3TIXSuXMkSrqR66JTm2DmPnZXBLfS3ukrxlTwd8fXMdUa13oYsUVTl0kzE8nOqwBUEKFJqyX0yW07q03DoYYNL0haqBi+0p60hNdxmEPO6aKVVLPjKvRZwo8D8VmLiE6iCNqdeRQWUV0x+rhDEIqkTfuKgPZJ07llMODExBX5XEtotWm4ldsLNQGIAg0sZPUR5+za6krObt3DBenTxNsmTR8PfE7IOBB5fnzoJ5q1DYC8pVYmg4EIgpCmASlhdNRp2DVErxdBHT41/TunXC1MtNo0XFyUe//LgMJ6zFvuykEzHKOZNL0R2sUXlsUxoIhxIPJaRg7If0t1xXiORHQriF0xD8KBRItdizRBOPWjLPj5V/tqvRZDq+9bbRoOtXPwT6fVHQflsUYst2TthkPEI1J7YujcKKHTbKW7xD1hbAVF0awDixhW49oMA5G6g8ic74q7tw2B9i6265QKaYJw91F2+0Up6Mmrlabh0KtoTxXVf/adm0C/RYnw29XTVck48zQDwle6j4e6oTFQVlEOaCZEFKEOIr1Nh2NBM/vOavVyaAVTtFtB5KXZ9xjRNFarZE1LR4/rNC35fQsd1R3GGfc/+0wUCkCcbb+2cy5Tl8kp9whVXkXmzrriAW50xVhWsyVUNI3PEVvPPPHd1my3WhCeiz3+8FsZ9ogPhG5o0AneI62MQqipPPfICktaGeUZeq67yGx4ypaPmCI3Ne4GT3YQr/nNd8V9OoRCq8aud0qUimmCEDOqaRrPUrhQV6NOsr1l4kO9imZwKPmg97YaQrwnranKO/ewd4AQz0A/u/kD4tfEvrODSreTLbACgS+/fCt7QnGgm10xltXsjjGTJHUJoGYzbTYDW8N39n6jXqAa7qDd6UmbZgIqKtCEAOyV0I5OEhJev6fI4ZjsAAlCIbJ1i0lyXJKDiv2bu+fBJ4eWuFVedCbcvZlIfCTTExF8xl0tBhJbOPeIfpyN34K1+Qzf0QMigHeuyGTgIrIl5ARiJPp8l3uhP2f0/IWtn8B3J9YZYWe4DComjF4xjTho/JXhgTPhTwZOZtJERZy1gqMHhutiL0GoS1zqmRGIPD224d1q6ZrP5WfYrIBNWPc2HONsy0zqcIfQ2Tb/jvNX5zFJ6EKjWxt9vmAkCBkRGo/gTNkZELFrHrP6NcCxomhCVw9oB/GWpc/brjx/7H7fIJ7iraIfNxZAahq7TTd6gL5WEOvm1uzYqpeoaXwRhLHECtfUbZ8xr4bnUbYR9Sm0UT2sSQ/AWbUZWnNuNyw9swWWEnMgFwqyHFi1jW0KL3a9n6ho9XO4JyoBfZJ8uSKXYTeybzjgRoJekiDUKzGN/I8l305my+HwVOq/mJx4UAknK/hDbZvbCUBuTexjOxyV4MKcW3lluU0V//DVM8RkR7oNeOiSTI0eaHOzDYCueKqV1ZP+1Yo8oPUGYyL8iWNJY8dPfRKEVpqGy7hKPvqpUjjInRbT84H6dx5IHGWTPWiyX8vPUpEPqn3hIrey0I2mPNCjJx4bpSmDHCFAf3Vof0aL0HnOE8l3wFiybmk14Vbupz+xrSB6Nm3p5uI0Xz+fBKGVpuHenpcNK7eZU9hAL6Kzp6bA4hG9YPZvS+HDAz/CydzzvOyr4kXlpYAemXivTFUZXASSourDn9qNtP2CCZitprzCCnjn66tQWGz/Y/RODoXxt0QafrTPgVCkaThnuztmAah8CawnKkI83O5WwJN4C06stx2WR//GZimEgK1P/WTok5BsA19d6qiBWd5a5Wd8nQ37jtuVWrAb/vPd9qMOWuWd3fc5ENpUrUhLY4ZcmYZDi1xm/Ckr9Xr78TpKEOoRzZiJZKyIv3mpZ+DlpeugMH4PlIdmATpc1CJU6+pO3EJ0r9emCnwIxOqmeSvz4Pv17ML0yw/GQccW6meK3amjz4EQX8pK03DohnYosVG44xB7TsIdYSp5EMgxKj6PK/PjIPLsjbYf5p9yfyzcPtgfckrzbVYWcoiNGJyMKNQwvJ7pYwMKLzPXrQeL4e15VxkWz94TI8Qjqk+CECVhpWk4m06hAOfbzBe7HrlEDobT1JacRIsODiE/sr4WQd/xnnAWsTP4yNushhMux0y41dhsmH8zuVjNS8Ti+PnLLAgtfpxp9rgSMfgp1sI/jgOnP2Yfbph9iAShWQnqLK/meFonm2rJjmNjZysRX7+WAH7OXZIYqpcEoSGxGS+UnMROKPju2ThnsSVfIGeL8GgtT2+RFrAJccMhkiQIRUrTDV7JzdmZJG9M0g0WlmbB7nf8mxmw1MnhtlcmxLm09220YmIhbbQWtagc3xKmUWtunhbDhr1F8Obcq3D+MnuUIyrcHz57Id6tk3NG3kGC0IjUTJSJjw1gSmNLuJF8fD2ayAwDAZGDp0oAFVMXrGPXAJG1K8dDAh5tYyFBKEqSJvhM//IqLEtpYIKDsaKuwIccxw2Pgin3xRhjrqOUBKEOYVmV9VxGGUyckQkfTa5n1SMYvlrgqxMdAM+Rhejb++vXDWQe5GZEgtBNQVmdbTNRDn398yuAg38rqLC4EnDXYwPx2+es21WeiedDxg2PBC1LWkp+EVcJQhFSFMQDwYFqZH8lXSCa0DBL2MIi8LYcKLZpQPP+h2n+w3qGwdibIlXdrdF5RYd9EoTeYBpO7UPcNTiCKHdGu+0RiueDXeWE6Rk2pQBUDOhBwNinA9nWI7sUWpSeWQ5opCCVWMZKTSuGw6ft2i5qZft1DLWBb3BX/RrRajz1pvscCEWZhlPbe0bTcMfPseZu9QgVW7OU1iFwh47xFBp5QvDRhH5A8KccJEK3XPXj/CEhLuDaj8yyFdDhNZ2ATw+ltAoh4IsA3AP2NPkcCL3FNJyrD1fXhaV6Z+Xmk20wHA+6GqtdzS0H/B3m7EE746eW1qJREPRsH2Lr6kf01rYbqMZHdLrPgdBbTMOpfYjHR0cbOuyDE5LOpHVavqUANu9nT7CpPcud9Bs6hQL+uhOtIHfMtLnDU3QenwMhCsA7TMOJ/hTExCY5Lom/nYfJLJYsYOMWmvIrJqfb1CggwA+iya4GjhujI/xsM1u0BYNq9+GhAjUN1CpgMt0nQWjynb2+OM6M+dlxftE1r5noOTOnoIICnT9YPUSxWmAShFZLWBB/BFpEaAA0rMtu+wli71E22vN+j1ZPPrw2SECCsDZ8ZS9/RwlCL/9AtaF6EoS14St7+TtKEHr5B6oN1ZMgrA1f2cvfUYKwmj/QUrIjQlOjenKVzK+SEC0UPowKA7yrCD6PjBuXwB39I+CNR6zRITReq+otqdkSSgBa+0EevNW4NStra1Z93DVBWH1VqX1PQu0Zozb9apK0NAckaJflSm6FKR27miQws++C+oB4eHzSH6MBNYIkAWiOCaWQpASsloDsjq2WsOSvKQEJQk0RyQxWS0CC0GoJS/6aEpAg1BSRzGC1BCQIrZaw5K8pAQlCTRHJDFZLQILQaglL/poSkCDUFJHMYLUEJAitlrDkrykBCUJNEckMVktAgtBqCUv+mhL4fwxffk8sx1yKAAAAAElFTkSuQmCC;" vertex="1" parent="1">
          <mxGeometry x="167" y="453" width="13.39" height="13.31" as="geometry" />
        </mxCell>
        <mxCell id="xsJzfTvv46yiWeYfg1Ty-2" value="&lt;font style=&quot;font-size: 8px;&quot;&gt;智慧园区&lt;/font&gt;" style="text;html=1;align=center;verticalAlign=middle;whiteSpace=wrap;rounded=0;" vertex="1" parent="1">
          <mxGeometry x="148" y="463" width="50" height="13" as="geometry" />
        </mxCell>
        <mxCell id="xsJzfTvv46yiWeYfg1Ty-3" value="" style="shape=image;verticalLabelPosition=bottom;labelBackgroundColor=default;verticalAlign=top;aspect=fixed;imageAspect=0;image=data:image/png,iVBORw0KGgoAAAANSUhEUgAAALQAAAC0CAYAAAA9zQYyAAABT2lDQ1BJQ0MgUHJvZmlsZQAAKJF1kD9IQnEUhT9TEUSyoSHCwSGiQSPMoakwhwgaxDSq7fk0DUxfT6PcpalFaK7AxsaoVZrag+gP7e2Bi8rr/rRSiy5c7sfhcLgcGHFohpF3AHuFshlfWfZvbm37Xe948DHKNHZNLxmRWGxNLHzf4Wk+YlP3Iaiynr3taivZmXQ22hvni1fuv/6hcaczJV1uWzagG2YZbDPCscOyofhIeNyUp4RPFGd7fKE41ePrricRjwrfC4/pOS0t/KQyUwN6doD38gf61w/qe0+mkFxXuqyPBCHC7FMiKDT3jzfc9UYpYlDBZJcsOcr4iYhikCcjvEoBnVkCwpKlklXHv7vra8VLWGiCvdbXUqdwewwTL31t6gy8Vbi5MzRT+2nU1nSUduZDPfYsgfPNsj6kU1cNOjXLatUtq1OX/FdoVD4B1oJkDpipzOEAAAA4ZVhJZk1NACoAAAAIAAGHaQAEAAAAAQAAABoAAAAAAAKgAgAEAAAAAQAAALSgAwAEAAAAAQAAALQAAAAAdR20QwAACxxJREFUeAHtnW2MHVUZx59l37q7dbtbFtauSgs2pS3Q4kpLSVspBggYaAMBAyXxHRPkgySUoAlIiy+JkQ+SCDEqQb8gH5oYTVMJoFRDgxQhrSVtaQq2KsXWZpcYdrfbLuB9tt7dnXv37p0zd865Z878nmRy78ycc57n/J7/nTt35sy5DR8WTDAIBELgrED6QTcgME4AQSOEoAgg6KDSSWcQNBoIigCCDiqddAZBo4GgCCDooNJJZxA0GgiKAIIOKp10BkGjgaAINNnozbadw7Jj90nZc2hUjg28b8NFbtvs62mS/gtbpH9Rq9yyriO3HCp1vCHtsRybHhuQZ3cNV/LH9hQJLF3QIk9vOTfFFrPfVKqnHLc9dBwxO9TEvsOnRA8g2CSB1AS9dceQKGDMLQH9NtRTPOwMgdQE/drBUZjWiYD+XsHOEEhP0G9wdK6XqPTHN5ayoI+eGINpnQhwJWkSfGpH6MkmeQeB+hFA0PVjj2cLBBC0Bag0WT8CCLp+7PFsgQCCtgCVJutHwMpYjjjd+duvPh6nWN3KLPviv4x8p90fU/9GwQZcmCN0wMnNY9cQdB6zHnCfEXTAyc1j1xB0HrMecJ8RdMDJzWPXEHQesx5wnxF0wMnNY9cQdB6zHnCfEXTAyc1j1xB0HrMecJ8RdMDJzWPXEHQesx5wnxF0wMnNY9cQdB6zHnCfEXTAyc1j1xB0HrMecJ8RdMDJzWPXEHQesx5wnxF0wMnNY9fq9kxhHmHb7HNWn0FMe75rBG1TZbRdlYBOIaeLzqC69YWhmue75pSjKnIKuCKQxnzXCNpVtvATi0Ct810j6FiYKeSSQC3zXSNol5nCVywCtcx3jaBjIaaQSwK1zHeNoF1mCl/WCSBo64hx4JIAgnZJG1/WCSBo64hx4JIAgnZJG1/WCXDr2xLit46Oyf7CH5H+49hYZFF35/U2RZal57fI+fNqS0Xa81OnjcXVWJPaKKbd64y3d3zwfdn+l2F55uUR2ff3yv/buPetU6LLVFu+sFU2rG2Xq/rb5OxOvjinsjF5j6BNaM1Q9t6fDMhzryT/i2K9maDLw08OyvWr2mfwxK6ZCHAomImOwb5axFzq5veFozyWjACCTsaNWp4SQNCeJoawkhFA0Mm4UctTAgja08QQVjICCDoZN2p5SgBBe5oYwkpGAEEn40YtTwkgaE8TQ1jJCHCnMBm32LU+++k2WfixZlk8v1ku+WSLNDaI7D9yenw5cOSUPP/XkdhtUbA6AQRdnVGiEr3djbL5q92y+pJZZfXXdjXK2uVntv/2xWH50VPvyn+HPigrxwZzApxymDOrWmP96g557sfzphVzaeUNa9rlxcf75PKl5cIvLct6dQIIujojoxIqzO99vduojhb++f09oh8ErDYCCLo2fpHanR1njQszstFgRT8IeqqCJSeAoJOzK6t538ausm2mG/S8G0tOAEEnZxepefVlbaLnw7Wa/ojUKyNYMgIIOhm3slqL57eUbUu6QS/zYckIIOhk3MpqLSlcZ07L9Jo1lowAgk7GraxWmoLWGzBYMgIIugK31pbCLb2MWJZitY0UQVcgPKdwCc7E9HZ2Wrb3zegT4dXaNY21WntZ3m+WtSz31DD2ObPN0KQp6AOGHw7TWA1RZKq4WdYy1bXagjU96ulAo7Ts0NtmR3vTWNOK08d2EHSFrOiELyamo+Z0oFGttnPvSfnjq2Yj8FZdxDiQIncEXSRR8rpicWvJluqrOmquVtv8xKBxE6suMo/V2ElGKiDoConSa8EX9JldD9YhoHf+8ESFFqtvfuBng3KsMJ2Yic3/aLMs4zLfBDIEPYGi/E1xzHL5nspbXt53UlSYpqYfhN/tHDKtJus+xenGVGgIeiqNkvc6PiOJqTCvuecd0fPhaqbn3Wu+cVT0g5DEksaYxFcW6vDEygxZWr6wRVYWxjfvSiA2PXW465ET4wONbD2CpbFpjNgkAQQ9yWLadzeubk8k6GJjesXC9KpFsW61V40NixLglCPKo2xNh4RuWOPfkyQaUxrDVcs6nPENCDpGAu+6qVP6evz5MtNYNCasnACCLmdStqWvp1HuvtkfAd3z+TmFDxiPapUlqrABQU9HZZpter56x7Wzp9njdtODX+qW6y5PdvXFbaT18YagDbjff0eXrFlWv+u+NxaeCr/1Kv/O5w0QWi+KoA0RP35vj3zhuo8Y1qq9uI4t+X6C6RFq95ytFhB0gnxtun2ObP6Ku6ez71zfKY9+8+wEkeavij8/3TPG/uYrO2RuZ6P8+vn35KXXk93lq9blKy6eJbdfPZvb29VATdmPoKfAMH2r4yh02bZzWJ4qCPv1kv8eNG2vWP7iC1pkY0HIN3DjpIgk9iuCjo2qckEVni7bXxouLCPy5z1m45mLLd/0mQ65ZkVbXX94FmPJ6iuCTjFzn7uiXXRRM/0rYN//2jhFTFab4kehVbw07poAgnZNHH9WCSBoq3hp3DUBBO2aOP6sEkDQVvHSuGsCCNo1cfxZJYCgreKlcdcEELRr4vizSgBBW8VL464JIGjXxPFnlQCCtoqXxl0TQNCuiePPKoFcDE7S4Z07dp+UPYdG5diA2dxxVulPadx0MNOUqkZv9Ynx/gtbpH9Rq9yyLrzHuYIX9KbHBuTZXbVPc2ukGo8LHz0xJrroh3zrC0Py9JZzPY7WPLSgTzlue+g4Yp5BE/sOnxL9wIdkwQp6644h0YRhMxPQby89WodiwQr6tYOjoeTIej/090UoFq6g3+DoHFek+mM5FAtW0PrDB4tHwNcrP/Gij5YKVtDRbrKWFwIIOi+Zzkk/EXROEp2XbiLovGQ6J/1E0DlJdF66Gfyt77iJDG2iF1djQ+LydVWOI7Qr0vhxQgBBO8GME1cEELQr0vhxQgBBO8GME1cEELQr0vhxQgBBO8GME1cEELQr0vhxQgBBO8GME1cEELQr0vhxQgBBO8GME1cEELQr0vhxQoCxHP/HnNexD05U5tAJR2iHsHFlnwCCts8YDw4JIGiHsHFlnwCCts8YDw4JIGiHsHFln0CwgtZZNrF4BHrnNsYrmIFSwQpap4zF4hFYvrA1XsEMlApX0IX5j7F4BNZdOitewQyUClbQOpn30gUcpatp8NqV7XLD6vZqxTKzP1hBawZ0Mm9NGDY9Af3AP3L33Ol3ZnRr8L+cNGHbCl+pvv8lhSv98JcUrkhb9KNfqSF9rVpElfmmgz7lyHx26IAxAQRtjIwKPhNA0D5nh9iMCSBoY2RU8JkAgvY5O8RmTABBGyOjgs8EELTP2SE2YwII2hgZFXwmgKB9zg6xGRNA0MbIqOAzAQTtc3aIzZhAw4cFK6315tun5Zfb35NXDowK/8haSof1ehI4r7dJVi5pHR+b0z/NmPcyQauYN275j4yMflDPuPENgRkJNDc1yE/v65EVi6MPckQEffidMVn/rX/P2BA7IeATgT88Ok/O6Zp8JjJyDv3gLwZ9ipVYIFCVwMNPvhspMyHog/88LXsOjUZ2sgIB3wn8afdIJMQJQe8/cjqygxUIZJHAhKCzGDwxQ6CUwISgl8xvLt3HOgQyR2BC0Is+0SwhTTiSuUwQcCICV17aFqk3IWjd+t2vdUd2sgIB3wl858tdkRAjgl4wr0l+84NeaWuNbI5UYAUCPhDQGytPfPucyDVojStyY6UYKLe+iyR49Y2A8a1v3zpAPBAwIcC5hQktynpPAEF7nyICNCGAoE1oUdZ7Agja+xQRoAkBBG1Ci7LeE0DQ3qeIAE0IIGgTWpT1ngCC9j5FBGhC4H8BdP2dBSdq7wAAAABJRU5ErkJggg==;" vertex="1" parent="1">
          <mxGeometry x="228.77" y="453.54" width="12.46" height="12.46" as="geometry" />
        </mxCell>
        <mxCell id="xsJzfTvv46yiWeYfg1Ty-4" value="&lt;font style=&quot;font-size: 8px;&quot;&gt;智慧工厂&lt;/font&gt;" style="text;html=1;align=center;verticalAlign=middle;whiteSpace=wrap;rounded=0;" vertex="1" parent="1">
          <mxGeometry x="209.88" y="463" width="50" height="13" as="geometry" />
        </mxCell>
        <mxCell id="xsJzfTvv46yiWeYfg1Ty-5" value="" style="shape=image;verticalLabelPosition=bottom;labelBackgroundColor=default;verticalAlign=top;aspect=fixed;imageAspect=0;image=data:image/png,iVBORw0KGgoAAAANSUhEUgAAAH0AAAB9CAYAAACPgGwlAAABT2lDQ1BJQ0MgUHJvZmlsZQAAKJF1kD9IQnEUhT9TEUSyoSHCwSGiQSPMoakwhwgaxDSq7fk0DUxfT6PcpalFaK7AxsaoVZrag+gP7e2Bi8rr/rRSiy5c7sfhcLgcGHFohpF3AHuFshlfWfZvbm37Xe948DHKNHZNLxmRWGxNLHzf4Wk+YlP3Iaiynr3taivZmXQ22hvni1fuv/6hcaczJV1uWzagG2YZbDPCscOyofhIeNyUp4RPFGd7fKE41ePrricRjwrfC4/pOS0t/KQyUwN6doD38gf61w/qe0+mkFxXuqyPBCHC7FMiKDT3jzfc9UYpYlDBZJcsOcr4iYhikCcjvEoBnVkCwpKlklXHv7vra8VLWGiCvdbXUqdwewwTL31t6gy8Vbi5MzRT+2nU1nSUduZDPfYsgfPNsj6kU1cNOjXLatUtq1OX/FdoVD4B1oJkDpipzOEAAAA4ZVhJZk1NACoAAAAIAAGHaQAEAAAAAQAAABoAAAAAAAKgAgAEAAAAAQAAAH2gAwAEAAAAAQAAAH0AAAAAF2QUKAAAF4FJREFUeAHtXQeYFFW2PswwwwwTmACCwgouoktS0AUBFUTWyAomUFyfYRV4yppdzKhvAVfZFVbERJBgRlFMqKCuCYlmWRTXRUkDw8wwmRkG2PMXlK+prnvqVndVd/XMnO/rr7qrq+qGv24695z/NNnLQo3SoGogqUGVtrGwRg00gt4AX4Sm9b3MxeV7qLBkN23bsTvkuIe28TmMbHnZyfxJMo75xjGJDs5vSm1bJVNK0yb1snrqDehFZXvoyx9qaNW/aujrH3f9AnLd7sinLK1zkxn8ptSOP3gJTjgqjbp3TE34F6FJok7kNm6rY3Br6et/19LKtbX03c+1MQGjRUaSAf4xRzajnp1S6fB2KTFJ18tEEgr0xSuraenXOw2wv9+wy8t6iPhZ3X+darwEidQLBB70LUW7adGyKnpreTWt/Sk2rTnSN8B8AQb0SKMuhwV3GAgs6CvW1NCi5Qz2smqq3LknUhzidt/QEzLo7P7N6VgeBoImgQK9cudeBrmKwa6mFWt2Bq2uIsrPab2bG+Af3z0tovv9uCkwoM97u4Ke4s+WojrPypnNk678FsmEpRiOLVvwkZdo+fuP6Wn7lmRbi3cTPgX7j+b3kvLdnuXlpJ7pdOkZmYFo+XEH/dv/1NJjr5TTB19UR1XBh7RsSl15HO12WAp15ckVvmfsBzXSB9fW7f3lZfj4q52Ez7ooJ5AXnZJJl5yeRYe0TI40W1HfF1fQZ71RTo8vLKfqGvdjdr9uadS5Qwp/UqlL+xRqd1BsVA4beKm4/Nsa+uSbfS9BTa17PUCrnGRu9VkMfmbUAEbygLiA/sU6tO4yWsoV50aapyXR4L7N+ZNOWCfHWyqq9tAynnAu58+7q6ppe6m74aBP1zS6bli20SvFsiwxBx0t+/GFZeRGU3bYwSk0uN8+sKEhC6JgHvDCe5X8qaDSSv2eK6t5EgPfgoafnBGzYsUM9LU/7aJJz+6glawm1RW0BKNl90unpsmJoQeHpvB5A/xKV8PWOf0z6PrhLSg3y/89sJiAvozHwHEzS6hAc2bevk1TGjUkm846vrnu+xG4637cXGe0erR+3V7tiENTaNxluXSUz/p930F/e0U1jZtRov3WXzgok0YNzeLlVfxmt16+Qd/9vMvo9ue/X6H1WOz6TRqTR71+49+cxVfQX/24iu6cXqxVWKgtRw/JooHHpGtdn2gXQY38j/mltKlQTw8x87ZWvgHvG+jo1sbPKdHC5orfZxndeXqzxBi3tQplc9FGBvyh+WW8j1Bl82/4Kb+A9wX0uW9V0N940uYkRx6aSn++qAX17uxfV+aUh3j8j/pBq9/Fyh8neXlia+rY1tvtW89Bn/5qOU19qdSpLMY6e8LIXMNIwfHienjBZ9/XGK0eRyfxGnhPQX/z0yq69THnMbz/0en08I35TmWt9/9DzYvufu5b5WJZm6U0oefuPcizFu8Z6AW8733qjVvEzOPPM/o0p/uvynO8riFd8OjLZfQoayglQRf/N57Ve9HVewb6wGu3UJGDGvKPg7MMBYRUuIb6nw7w3Xgj6eEbW1JelAocT9Q/98wqcQT8vtF5jYALb/RV52TTVWdnC1cQfcM2gRPnOk+QxYfwn1GD/vy7lbTgg0oxnak3tDR05+JFjX+SDvDvrKiiB593nihL1RkV6NglmzBXXovfdnEOwWasUfRqQAf42W+W03Pv6mn47FKNGHTsK/9lttzVwFhgBBsNNIq7GtABHt38Z985L/fsUo4Y9Pvm7RBVioOOTaebR7SwS7PxnEYNAPhBv5VV0tNfk5d6qmQiAh0aJZgOqeQ37VPpnj/mqv5uPK9ZA2MY+Nws9cbTJ+wDALtCt+IadNihS8oEGAXcdWkOtch0/Wi3ea/318N75moGXhK0dmzjuhHXyABwOP+pBF16ffD3UpUv1ucvGJRhKLRU6cJid8ZrsmLHeq8r0D//vpaefkfdnZx4dBrBAqRRvK0BtPaD2JlSJa8vrWJrYvVwa73PFehSt44HX8YWno3ifQ3AkmjMuXI3/+L7sq4kNFfaoGMz5d3Vatt02HP38nmLFEuUmWw2DYOEr9hb1a31aWjBE+07etAh7CqlEvgN6LZ2LdNS7Ptixq4SdD2w4/ZL3mGTq4dfKqP1BeGeqq047QtOzqTTj0unQ1trFSfqbFbV7KUNW+vop4I6+vemXZTFnjSZ6fg0YQeLJOrbzR/7gAvYYvbVj9UtGq1dRxGmteEy8/VyY9NfVVtjL8qhi0/zRwkDwG+eVqRK+oDzv+N1Lcyt/DCoXLm2hl7/pIqJD2p5thz+8oVmpAs7YDxwdZ4vLyG2rtHrqgQqbyfgHUHfzSbcQ24tMN5su4TgdDD79lZ2f0V9bkfFHhp211bDtcjNwwb0SKfRbFyJXaloBUMJJkofRuB29dWcdtEmH3Y/LItHPVAYdt48cdpxzWkSv3CSOI7pUMKgK1OJn5O319iwEk4EbgXj2+UTC3kpE5nGCum991k1jbhnG419pCgiwPEMbJd6LX26NiM4Q6oEnjYSXrjPEfSPvlQvBeBHdlJP/zZTXuXuNFKp2cVWKS+W0pV/LSQ4ILiRB57eQdf/o4jgXBmNwDACREdey9AT1f4AsLFfIky4kRcR9FLuXj8UQMcY6pf8zL2LFzwyK9ij5o4nSpjYwNkIES/KsLu20VOCLsJteTHR81qwryGtlNDaJRFB/5S3TlVeKU2aNCG/QVdlvC97rPbncTtVk/Lr83XsYTNDtt2DgUKvKzd58qKF5tsP0PH8s09UL9+wnIVTpUpE0JfypEElAPywg/1bIqGlqwTj2sM35NOzbCx4yx9ytBieQFKksjpBC7/o3m2q5GzP/5Y9UGDvh+1jyeKlhKnO/BCsUCRemw8+V7d2JWowzJfG81N6+TeWo5Ik/b45K+/EGxL4nDsgw+iSMXGS/MZgeAAHQWxbhsp1PH7rCJZiZ/N4ejJ3r6FqUSzn6BWdJ3h7TZ8uzWiNYt4BmjWVKFv6p9/UKO3eoATxs2tHZstcuPvCM2bkWVk07aaWBMI/SWYvqjAUKuY1GL9BUyYJdrvGXZ5rmCFf+LvMAwCX7vP7P2lcx3xo/Rb73lIAXV0RANxv1+GyKvXEq7La/r++3O0vnnKw6OQP1guociFYg2OmLslxXdJoFvuVnX+SegwFS2U8BORFkqOnaly3BR2zdmi2TueFPtgfrCKtE63XRvpbaulOFGNPjGUzYfb+VAk0a+iS73cAfCS7S0+/pSXlONgGGN27IjG/t5kxt1DJcgVDl+2YDgMITBRMdSYUJFDmY/kGzVQPpsf0WyTnfFVLN/MEQ45xl+cYa23znPWI8V+y0x/G+vxrzjtw7Lc+A7+reCm4CmO6QkAo6Kccx+O6yiESXHx2Et6Mba5qnZds0GNgxuyHatEmSZE4yKml43knc091JvPTqEQC6lTmfoP1j46sEowTMffxy4Jo2oIyY25yam+1rqSMOXHsXKO1QNcpvNfXtGPWZZUUleotg7AJlJTkzv35iF+l0Fj2pNWV1QLoUter+3y76/7+XKnB23PztGJjlSMxV6zbGD6ZCy7oAkXYmvXq5UhoJXVjooP/cbn7hxcldDkW+jzrdzggLuNVjkpAe+a1jJ+zg+Ys2jcRheIHwA8QdPHrNoZrBAMLOug3sEdtJ2vW79LeiLn41EzCGK8jaJmSpsv6jHlsY/AvgaT46MO9Hc/vYhoXsFeFCoCXtlp/SCTQUbCBx9i3lComCJ6rafqL+UhvnuzoyAheg+sKuPAeEXbRjj68GSFtr+SWR4tp4Uf2BhQAXtU7JVRLR2Udc4QarHlslQsDCx3BDNdJwNd+Si/1pMh6P4wZJCaJ84R1vfVZTr+hZdzpwEyp0mBqtfQ/8xgRFAEQOYKxPyxqJFWxWQ7Mxp1EV/cAPrx+/7uZNm8PnyCZafTunGaoa83f0R6hCBvPrB3g1YtEii36/7DBrqhsNzNCyU6JkSQcyT3oHoeeIAM25sHtDIBsaAF/bmkmnd4sifX3cjpoaVjbDx+3lSqq5dXDiFPU2rtI6gH3YF4yYVQuYdhwK8A0VMJAx58wvnNyTgx9iJ/fAXqyw7Lr9Ju2OO6XS+vlM5lrVqVWhskW9POXjC90ZItAPUBdi/1uPwREwgAey0o34tjSzYeB7G7SM9H5QZvPiuaIzY5LmCfdSfqO3iTuISPgjkrSU8PX8ogRM5n9wM+7Y6uhn9cJJYJdOGzM+ClQ+EwYlUe/Epa01vSLLS3dVg1r3jTv7XJqxhVy7fnO6kjzHj+ONzBnKvbXnSxCRt5fSNcyue6VzEtnFamlmyZNmAVjcghduqSxsz7b/A0yoFjIkUwnOpGZPW6YWkTbOd6ck2i3dPNB8JMCc3O8ZfI1+dRJo1t7iPnZrplcFGb4Xyxo8TDzPfHqzXTO7VuNLtwt4HBCiJV62sQBOoCJ3OIzFLoM8zocrZtX6j4v5K5pC0p/0QKFnI7515fGtzZ6HqeEYQ17zeTtv4AP5wRpJwwgu6HrDk3/L1fmGTPr0HOx+g4LInD5uFU1a4GOQkDf++ySA7VBsSpcaDorp7dlZYve0sUE/9Lx28QlVujzdb/DVOlJtveXLFN1nxXNdbBGvm+0u3mEOKZbMwP2CRgjeql4sKah83sG73E/s7iC/vqUbABhPgtMzF4JQm7t8yuTl3hepafzHNjqYUl5N9Or64gr0PHAe58soVRmMDT32nUS8eMaOEy25WA9E5h7paBYrSjxKm0oigC2G62dV2nrPAd5q+ZhTKchuAYdGbjjiWIj4jCcBuMpA7hrO6RlPs3jdfQrH9rrpaPJnxlRMVFCaqIhAHiQDUsSBjrilukI3H1SU/INYwWd6/26BjP6/7si19DcPbekkt5mnjU3YgBqsW7JYQ0e/OHiGUbLTRlCrwWNOrp6xMlRSRjoiCWuK7c8UkyTr803Aszq3uPXdRhr8RnCGrz32Q8N2686++4ICmQ1ifYrj7F6LggM0OJVJBJRgQ4nAew2Pchr6KBwtoMCBR/IevYfB/DPcPcPrw876eCjw4ZderE6B+4ftHjr/jvSD2vWkhWpXYax8L+Ngcf+ctCkA9N2nMkzW2lDJhHjn+vW851s53fW8eGbP2GgIy6pWylkVeDtjxdrdadun+3F9SqaEljmIExnfRZs0FglDOFIrT3gBnXb4yVkt2lvTTSWv8vZIlQl6NpTNJ0gVc9IhPPWOUsY6FJ3Z+f4EFpoTKKk+0OvjdV3qWuHH1xDlDDQETpCRdgD2zSVFcqtzPZ8BZP4B002CRYupiNk0PLsd37CQEeCUmuFe7IVeOwhQzEQRJFaesdDwhYvQSyC53myBV3q9mDcj1giJvDjR+aJzn2e59jlAzcLwe/S2EyqIYrtqy619NXf1RJMiAD8W+y9Gm9VrBNoUkuvL8H/MIlu5yLatC3oUpzPvXv3EmKJwVcs6IDjhYA/l0rqC+hn3lxgrEJgm4et1v4cSUPlKIK6sAUdqlhYj6osSNDaAXqii51tXKKVyTQBhw0+vFdND1bEmQf4CKdiFeWgJm0hRhpGwpp4vH+n1YPYrksUTFLwVsXWs50oQQcDg0rAryYRAanuC9p5B8vqoGU3LD/QhKpAh05FNUwrQf81L2d6Cm5FOjFCw3IZhxOS82KRxfMjDtmLKsklzJil0jgee2Qqde5gr3xSgo7cgL1IJe+tVnPSqO6Jx3mJOkRioohHXt2muVjRteM52GZWiQi6FC3on8xThsAxQRcJdDg0JKqgp1VNtGHHaG4v25VPBB3uM7AgUcmCD9xZqaie4+f5rmy1qpKlAqGA6p6gnF+ySt3gwMwtKdhE0FFAqbUvXsksTXGi09KtfIlwHzSomAwlmoDcCOO5SqRWjnucQT82jeA4pxKnOKuq+2J1HhM5lU4BBiBuYp/EKs9O6SxkB1OVBTA4e6MGHZUmtfY3OMpAEK1mQisOBMIqefGflQnV2qFWnrWf/NCuTIjqAIshSRxbOm4GH6okC3wwP5bSc/vfGX0O5HINvR/d+5NCJYZeG4TvAFwKfACOHSfRAh0uuBJNJmzOdSxPnTLj1//Z7KYM9kuVwP8ckRyCLoiyYWfoaOYbnkc6/DpaoOOh5w8MN7AzE8Px0Zfj79kamh/r98FMJKgiHsC1U1/cR8ZnvS9Iv6VuHVGidFo5yqMNulNrh7OglKl4Vx60U5KhB16IpgG2l5vD7NWqdTnqFvx3Hdvaa+Csda8NOm50au2InRZk9SxAt/Pg6dGpGU29Pp/axyiumxUEp9+w35caFMzb/qAxlpvpuAIdrV2KYgDqKwDPW+6BFLgpjbGQ/GJmP4W9dNrkq5el8S7MYxwACIF0VYJuXdI8Wu9zBTpuhjmtxNSELgjAB1UwITWjRYJG7O9/ymOacNfVELPiPci8NxIjJDbFEHjAjURUWqsdtTXB6UxZ8hHPNIMqN13YwrDxg8mXZGES7/wjgvXsN+UJsu7kLbQsEYGOfVqpm0cC07i1O/GthWYk1t8BOPzsgyrwvXMKQnDBoMyI/OUjAh0VhdYuMRhi3X7PLD2miKBWfDzzBbIkSTDE3nFJuCmUdI/5X8Sg4wHXDcsWGZbfYV9xUFM3irsaGM4BAaWJG6hT72Wf/EglKtCxbXkd87ZJ0gi8VDvh/6FLX8uRliS5m0OVuCEPtD4rKtDxsOEc0xt8J5I0Ai/Vzv//h8hRmLxJgrlUtDSkUYOODF7PjI5HMIuhJI3AS7VDBrmDU4xXgO20cpJT2fevJ6AjstK4y3LFsFhIrhH4cEhAEzJ60nZxLY670J2D6sULacIeK57pz8DKeMV9hY75gnk1JoEN1WvUrKD/cITEsczb4xQ9GkvLVTPamrdFffQUdORGF3jsCgF4t9qkqEsckAcs4+DFd07fF21JyhL06q8/0Ea6xPV/noOOHOgCj2vBiQLwVTFIcE19E2jZHuKtXCkYMMqMWKozb23lefF9AR253MBU3YPHFmhlGLReAB7RiuuzIIIldst03MLQGOz4YryoH99AR+ZgijTy/u3042Y9+3IQ3zmt+70odKyfAb+yWW9UEAIn6MjFp2W5Cgio88zQa3wFHQnB7eZ2JiCCkYWOdG6fasRDR0yV+kAC9DQTF6N1FzKnvI5czhQuCGrgp/gOOjKPsevumTvotU/0+VthBXLugAzjk5EW3I0RFTiL2S59/vuVtOxb/d3GUUOz6U/M9ui3xAR0sxCg654yv4x2cgxzXcHs1QCftX7gbA2yFHD06UXLqvhTTToxX8yydOA5zaghWfT7fmrjTfNaL44xBR0Z/vKHWpryQilJgWntCtYmH+A3J3CbB82sCYYjAHoRkwJUCMwXduWCCdcojtMeS0OOmIOOgqO7n/JCmZKw1q5yQs/BxOn47mk8209zxbUS+oxov6NVY62Nlg33KLeC+GojuXX3389j6/b+aK6PC+hmhlewH9xcDlL7oeYkz7wv9Ih9ZZg9waFBcr8KvSeS7/BlX7FmJ33BPdXXbODwzY/yTpgqjWS2uh11VhYDns0m2aqr/D0fV9DNoi38qIrmcOzUaClG4ZMN/nZQneLTZv8RrrtuBH7rAHnjtjrCi4nu2wu3ZviYoSv3Otqym7Lh2kCAjoxUsifmXI4L7odvWS4bHZgvAF4GhOGEIIoTQlIWcfguE2g/iAoQKBgUqpiQBkECA7pZGVDowJPUD/DNNGJ1HMgMXAA72v1vr/MbONDNAiYq+HAVBtD4qIh+zDLG6xhY0M0KKWV2SjjumZ9Ig+aZz/PrCGcDRGIE2G4D4PqVJ9VzAw96aMZDXwBMsNAbxFMAbveOqXQUf/rxMjJSrvxYlyGhQLdWDrZwVzH4q7+vNXaunLYqrfe7/Q1DUADco1Mq9WT/tyC7QkllS2jQrQXDS4Bl1oZtu/lTt/97XViAWet9ob9hXtw6N8nY38ce/0FMvdKDZ989Geg0m5Dbofcmyvd6Bbqq0mGHVlK+hxBH3Djy9xL+jsC0BrAhILtd06vSDPL5BgF6kAGIR96CvW0VjxppAGn+F9N1QoFZSEIhAAAAAElFTkSuQmCC;" vertex="1" parent="1">
          <mxGeometry x="288.54" y="452.85" width="13.15" height="13.15" as="geometry" />
        </mxCell>
        <mxCell id="xsJzfTvv46yiWeYfg1Ty-6" value="&lt;font style=&quot;font-size: 8px;&quot;&gt;智慧环保&lt;/font&gt;" style="text;html=1;align=center;verticalAlign=middle;whiteSpace=wrap;rounded=0;" vertex="1" parent="1">
          <mxGeometry x="270" y="463" width="50" height="13" as="geometry" />
        </mxCell>
        <mxCell id="xsJzfTvv46yiWeYfg1Ty-7" value="&lt;font style=&quot;font-size: 8px;&quot;&gt;智慧安防&lt;/font&gt;" style="text;html=1;align=center;verticalAlign=middle;whiteSpace=wrap;rounded=0;" vertex="1" parent="1">
          <mxGeometry x="329.5" y="463" width="50" height="13" as="geometry" />
        </mxCell>
        <mxCell id="xsJzfTvv46yiWeYfg1Ty-9" value="&lt;font style=&quot;font-size: 8px;&quot;&gt;智慧水务&lt;/font&gt;" style="text;html=1;align=center;verticalAlign=middle;whiteSpace=wrap;rounded=0;" vertex="1" parent="1">
          <mxGeometry x="391" y="463" width="50" height="13" as="geometry" />
        </mxCell>
        <mxCell id="xsJzfTvv46yiWeYfg1Ty-10" value="&lt;font style=&quot;font-size: 8px;&quot;&gt;智慧物流&lt;/font&gt;" style="text;html=1;align=center;verticalAlign=middle;whiteSpace=wrap;rounded=0;" vertex="1" parent="1">
          <mxGeometry x="452" y="463" width="50" height="13" as="geometry" />
        </mxCell>
        <mxCell id="xsJzfTvv46yiWeYfg1Ty-11" value="" style="shape=image;verticalLabelPosition=bottom;labelBackgroundColor=default;verticalAlign=top;aspect=fixed;imageAspect=0;image=data:image/png,iVBORw0KGgoAAAANSUhEUgAAAKQAAACkCAYAAAAZtYVBAAABT2lDQ1BJQ0MgUHJvZmlsZQAAKJF1kD9IQnEUhT9TEUSyoSHCwSGiQSPMoakwhwgaxDSq7fk0DUxfT6PcpalFaK7AxsaoVZrag+gP7e2Bi8rr/rRSiy5c7sfhcLgcGHFohpF3AHuFshlfWfZvbm37Xe948DHKNHZNLxmRWGxNLHzf4Wk+YlP3Iaiynr3taivZmXQ22hvni1fuv/6hcaczJV1uWzagG2YZbDPCscOyofhIeNyUp4RPFGd7fKE41ePrricRjwrfC4/pOS0t/KQyUwN6doD38gf61w/qe0+mkFxXuqyPBCHC7FMiKDT3jzfc9UYpYlDBZJcsOcr4iYhikCcjvEoBnVkCwpKlklXHv7vra8VLWGiCvdbXUqdwewwTL31t6gy8Vbi5MzRT+2nU1nSUduZDPfYsgfPNsj6kU1cNOjXLatUtq1OX/FdoVD4B1oJkDpipzOEAAAA4ZVhJZk1NACoAAAAIAAGHaQAEAAAAAQAAABoAAAAAAAKgAgAEAAAAAQAAAKSgAwAEAAAAAQAAAKQAAAAAAqy6vAAAFzZJREFUeAHtnQl4FVWyxytkT0jCGmRRUAQFBQQUZZNNETdQQNRBUGdccJR5qPgUGHV8Dxy3cQNcUUFGZRSUARWQXUQUFRBcccOFVWJIAiEEAlP/Du273He3ru6+93TfU9+XL3fpPn26+nfPUqdOVcohFtKiNaCIBmooUg9dDa0BQwNpWg9yDXz81T56Z/VeWvtNJW3ZecAoqFG9NGrfIoP6dsqmU0/MlBeepGem6C7b2pNfs3EfLWAI3/lwLxWVVkU8uW5+KvU9PZvOYTg7tNRwRlTW4S81kDFoaR23gAtWlxsg7twVGcJwxdWrlWqAeU6nHDqFW1AtoTWggQytF/r020qjOwaIO4plEIYpmgprA84co1tvd7yGM1BPGsgAbWz4Di0hd8f8t+236jFhwNeuvDyqTpoBJrr1Ns01nEkPJCBc+PFeWsBjwq1F8YEwHNkN66bROTzmPPvU5IUzKYEEhIs/YQi5Jdz8a2IhDAdn4/oMJ7eafTomF5xJAyQgXLKmujv+eYeaEIaD8+jC6m69dwf/w+lrIAHhsrUVxgz5p+3egjAcnMc0QMuZQz3bZ/lyzOk7IAHh8k8rjInJpq37wz1XX3zerGG6MSHq0c4/cPoCSEC4Yn01hN9v8TeE4X5JxzWqhrN7W2/D6VkgAeF7gPCjvfTd5uSEMByczRsznKdlUzcPwukpIE0IF7GZ5ptf1IKwdl6qwUdxmbNG9HDQxfp5iybpdBabkbwCp/JAmhAu5hnyxp/UgjA/t4YxwYDtsFOr6rXq1V/yWjfbNLHCU7rnYKzcxOW4lsekUx+eqasMp5JAmhAu5RnyVz9WxuVhxXqRmtk1qldWTs+hzidFdphY9TngLDcmWLv3qgXniU0zqBfP1FWDUxkgTQiXr6ugLzapBWF2JlpC9trhlrBrm6xY2T3iuJUb2PxktJx7ae8+teBs3SyDepyiBpwJBdKE8F0203z+g1oQZqSn/N4dn8lmFScF92t265X71XLYP+nYDML9JqrljDuQJoSYIW/4Xi0IU1MBIfwXc6hXB2chDAf00jXVhnssY1ZVqQVnm+MyDDDjCWdcgFQZwpQUE0JeN+bZaCJlMZw8GEz8qbbVKV5wugakyhACurPZTmf6JCYSwnDXhgscZuoL2c6qmrgJp6NAqg5hb/acOZdnx5iceEkw3pzHs/Ul7KGkmjgNp20gv/xxPy1jG6GKY0I8vJ7ts+m8zjnUz2MQhgNvPsP59qpydhpRF86ebOts1TQ93C1E/NwWkI+9VkLT5++mygNqDca78yzxgi45dO4ZORFv3utfzvugnN58v5xW8KxdJclIS6Fh/WrSf11SYLlaYiBHT/6NDb7lli/o1gld2D7Yv2uO0Rq6dQ2Vy0WrOWdlOb3P9k5VpC9bKx66sY6l6oiAfO7NMkLrmGg54ySGsFuO0Romui4qXR+t5pz3yumDzxMPJ1rJP12QF7N6REAOGrc9Yc4Np/Ga8UXdc+lCbg21RNfAXG41Z6/YQx/xGnsiBM4dsyY0iPnSloHE9tBh/7sj5gs4cWCHEzJp4Jm5RmvoRHnJWgZazdff3UNrvo4vnNPvLKRYt/taDqWynoGMh7Q7PpMG98qlAdwla3FGAxje4A/yb4Zz5tI9vP/cfTjBjGtAuum10pb3JQ/uVZO7ZA2hMwiGLwU/dPPHPnsF4NxN69np2Q2xwozlFtLpCsOwipbwYu6StSRGA2gAzEbgDe7S0XImys8gIUCeDAh75tLAHhrCxCAY/qpoGMzG4fXlDOeyPfRZHJ1g4gYk3JoA4SD+0+INDaDBMBuNWQwm4HTbTTAuQK6f1sQbT0DXMqwG0JCYjUnbK38Je5zdL3QEXbsa1Oc7qgENpKPq1IXZ1YAG0q4G9fmOakAD6ag6dWF2NaCBtKtBfb6jGojLLNvRGiteGNaJP/zi/5bjhp5Tk/Jz9O8+1semgYxVU1GOwx6YSbNKadO2I6NrzPtgLw3tW5Mu7aPtr1FUaHytgYxFS1GOAYyjJxeFPAqATnix2PhOQxlSRUd8qPuSI9Rh/Q02tt31XDVwkc4GlKptNYhU30R9p4G0ofkqjojyKHvOl1fEFhoFIaW1RNaABjKyfiJ+++irJZY8sRd/kvgtBRFvSIEvNZDChzCfd/xNm1dm6exdisWOtFT5OB2sgRQoGgH0H32tVHCmPiWaBjSQ0TQU4nt01Wb21xBfh/0IGRS0RNaABjKyfv7ft1N4CzBCSktkxIB8yWlJdY4G0sLjXvVZBT0u3I+OPeQX6K27UbWtgYyqouoDSjhe+KOvysaNiEU+aohuHWNRtQYyFi3xMRg3fimMdz6KozcgbLKW6BrQQEbXkbELD3tKJAK3f+yq1BKbBjSQUfSEAPxYjZFIK24Vb7nUegQwybX8co4GMsqTxLhRmm9m1JACytOuZ1E0fOTXGsgj9XHEO4wbpRHEEPUrWh6bIy6m3xga0ECGAQGxvZ9/y9rSoFkU4pdbCUFnnqf/E2kgQ1Cw+VdeGuTWUSKN66fRrZfVkpyqz2ENaCBDYIB16p93yBK+w8TTqF51Is4QReuPomhAAxmkoKlvlxn5CYM+junt1efleS7DQ0w3FseDNJABykYmV+lqTKfWWXSzNvEEaFP2UgN5WG+IYYhx48FD1jNKIEPs6Mu1vVGG4JFnaSAP6wMtozTsHIzfJ3Iuai32NaCBZB0iSOerS3aLtIlwdXppUKS6kCclPZBf/7RfPG5EEvQ7rtAmnpBkCT9MeiCxTl0s3OtyG48bszJShKrXp4XSQFIDiUgTKzlvt0SwTo2cOVqc1UDSAonMqs/MkTncnsV5tf94fuzZqZx9ZP4uLSmB3PZblXjXYMO6aXTHMD1udOtnkZRAPsb2xk1bjwwKFauCbx9aQIW19NJgrPqyelzSATl9wW56izOnSgQePEgCr8U9DSQVkJ9w7EapFw+WBiX5n917dP4sOWmArKg8ZNgb9wuSzedm1aAxV+ilwXj8BJIGSLSM0kSTMH43b6yXBjWQDmkAaXlfXihbGhzSuyYN0MlAHXoS0YvxfbCZbzfz0qBw1yDUhzVu6Tp3dPVHPqJvpxzq3i6LTjsxM2mcfn0P5GPsxbNzV1XkJ6/ot++sLif8QZ4cXY+6tslStKbOVcvXY8gn3yil5etkgaGcU7EzJY19uti1fNbO1NCZUnwN5JyVMnujM6p1thQ4gNz5bDHBWuBn8S2QcxlG7B70k/zAq0sIlupn8S2QcLr1o2ggPfpUj23oT7uhBtKjQB7TwJ8OEJ058KmfxbdddqN6/rNondIik1o182fLb/7IfAsk4us081m33Zfvye/iWyDx4Obc14Aa1PFH1922eQZhh6PfxddA4uFNG1dIWILzsqSnpRhRMXKy/L+hzH8DrSDyEPjpoRvrEPEfZqjbixOzjDh+6i6CHVEiCNHS8YTk2FDmeyADAUDiokQkLxr79G9iGPt3y6UrON92sojvu+xEP0i4vb35vmwJs0WT9KSLUa6BdJHYT7+tpPv+uUt8BXTVdfKT6xFZvtujC6338pu2+nv9NRRx2Cox4UU5jCMHF1C3tuoZwYtKrI/BrTBjGcgmAiB/SEIg/z59F30lTLSEQATXXqhmIIKi0tiS1Qf+SK0wYxnIowut2/U2bZPNLgNvykuvZy3fQzOFiZaacIzyMQoHIpCEurbCjGUg6xakUnamtdNWfbbPSzzZqutXHE1twjR5V41xY32FAxF88Lm1ZwlWwEysYo2sw6VaIR6nINfLjgTZ/2JVhFPH3cvjxgNVMifaay7MJyx5qixWgbTKighILPJblWVrZVHGrF4nkcff/9IuWveNtRbErC/2y/xlsNoZY9d/V0k/Whx+tT3eGisiIPt0tD77W7bWH3tbTICC/yM8y0vvyLba1slPpbv/WDu4SOXezxY4Pfdsb40VEZCIi2h1HPkex2F8nxOg+1G+4622dseNRynuBIIkpFYnajVqpBhbeK08cxGQaakp1OdUa+SjUrNXyFYsrNxQIo69/6USQhYHiQw9mwMRdFPf+WPmUutbQtA6ZmdacwgRAQnFdxJEj53/QTmt49ULP8ljHIRAmqCzQ8tMut0DMcolraOUETGQ0nDGknGIqgAjQedzb8oSdGLIM+E69ceN0P2MxdZbR5wn8VASA9mYtwgM7mndYfR1NhovWeP9CQ5c2bAaI5WbL80nJOpUXRZz6GtJI4IQMCcIcveIgYQipflZnnyjjMrKZWMuVR7gg6+U0E7Bui7qf/GZuXRZH/Vdyg7wsrU0RTPuUSK2gGzdLEPUSn79UyUhzIlX5anZHKJFaMZqxblt7vmTN7pqwLiBbY9WBcFdsR4vEVtA4oLSVvKfbLPzYtcNA/8TNn5MD8J73QOChFLy1lFuNbANpLSVxDN54vVSTy0pbi2qIqzGSAUz6kR4rEvqCxjLK6wPq9rxysz5nRMIJG5W2kpu/Hk/P+ASib4Scs7DM0rE8YL6nZ5DsDl6QV5ZtJvmsYlOIgN7yGHE9Wy3kCgEreT1A2TrsAs/KqeJM9UfT8K8s+BwrEbcsxVpelQ6PfBnb3TVq3g1TdpInMqBVaWTGVOfjgCJwkZclE/tBU4XOPfZuaWEaGWqysoNFQQDuFQeH1VXempcz9uyE0MSzhl+UOatJG2UAm/SMSBTuaTrL5J7OWNsBm8S1QSmnYfYxCOV2y6vRcc2VN/eiPvDM/h+i8yZGq5zp7e25tkTSqeOAYnCu5ycRVcLcwCW7jlI49mxdTunfVNJHv5XCcF5QiI9TsmmYf28MW58hO9zqXDBAlE1RgyQN0aBunUUSBQ8gseSrY/NCLxGzK+xB2UcR4lVRV6cz1tYhUOJwtqpNPFmb3TVGB+/8LZsCRTPCl11Rro1J4pwz9hxIOHdASilsvqLCrp1UpH0dMfOW/3FPu6q5Saep26r51hd3CwI9mA74+Ph/fKMTBFO1dFxIFExuB1ddZ68CYfTApbmEiUlPHxAVy2VW3hfzPEeSLS0fF0FPWDDrnrCMdxV25g3hNKvK0DiQngoZ7aTLR/h/OnzyzglRmKcMGBvhMuVROCWZ+fHKLmm5BzEXx/5yE7JqcY58FZCZtya2c4i5GxpQbd32x8KbHm0jJ5cxL6Gsj0qQVWJ+S2MwtL45Hk5NWjKHfVjvlaiDjzEVp1zR2+zdfkxwwoIdkenxVUgmx6VRv/NUNqR6x74lVZ8Gp+tD2s3VhJaR6m8MFZ9GCv3H6J2V/0ivUXjvGv759NF3WXePNEu7CqQuHivDtm8m84elDc+vNN1R4zyikPGuHEfPzCJIHVxy6PVDreMbRanXrNZcnu/n3PuGTk0cpB80vp7QWFeuA4krnsNhwW5oIu9Nc5RjxXx0p17Y0rsGJRmi8VWBCR3V1mKyw5SlxFbbFXx5OMyXI+qERcgoYV7r69DXWzm6ruNx5TS0HbRnsSclTI3fWx4mzpO7a4aQRp63GQPRthV/3plbapV011k3C09iIKnOIFkG/6V2REE/5ROOsJdd+maCt4AL4vQ9tJdheGKVeJzzKbPGrXVVl1qpKTQXVfXZica94ckcQUSWnnp7kLCZMeO3P1cMacMlrVooa67vVgG402DCpRO04EwiHZn09DXeN6MdibvkYmHxB1I3NTc+4+i2nmxByAKpYjx04rFkSKCy2vG7mFWBY6o1/VXd9wIX9P+d9gz7UAn6Kbtjv+t6DYhQKKCyyc1pFQef9kReKdMtbEGa167iSDE4PQ71R03fv5DJQ3+63bz9sT/b72sgIb0dse8E65SCQMSFVr7fGPbUGKJ79k5cscA1AMxGa0kR3+Zhx2qyrpvKunyv+2wXb0b2L/1ynPj3wMkFEhoDVBmZdhrKSfOKqF/2DBoox5jh9eihnWjj23xoGD+UFHg7T18vDMw3nCxe7bGSLpLOcQS6YB4fdf1hi2292p3Zn/Mp2142SAYFiZMoXwy4V71xC31qJMDTqhu6HTqvDJbq0xmnfCDSxSMqIMyQKIyPW7aSsVl9hx0Ea31X/cUEuxmEqmoPGSYld54t9wAs3njNGrOnjuDOK3biU2tT34kdbB6zthnfhP7bQZeK9Ewoi5KAYkKwWbmRLRdODlIAmKhDl6RXbsP0jX3/UqYUdsVFWDEPSgHJCrV79ZttGWnzDaI802BySLes0Tz2m7/x+TFifEi6qkKjKiLkkCiYhfevk28eoLzTRnKadluH1rLfOuL/1ipwljXCYFuoCNVRFkgoaCBY7fTt8INVoEKxmRnDEeNaOaR3X+BdQ9+jc1Ydva/BJY38eZ61OOU+KzABF430mulgUTFh9y1Q5yAKPDGMdm566ra7A6n1gMIrGOk11iTfuBl+c7A4LKfvb2+I9tWg8u1+155IHGDQ+/ZQRu+l20pCFYQ8sBcbWO/T3B58XiPQAXYwL9JmN44sI6ZbL56hmFs30JNW6ongIRCr5zwK63d6Mx2hvM4GNLNQwqogeKB5nHfU+aW0eMz5V7sKMMUOLXcN6IOnSTcpmyW4+Z/zwAJJdwysYgWfeyMk+6xDdNp1JB8w6PdTQVLy/72l/0MYik5lU4Fq0uIS4mUxyqLp4CEIqfwpvbHbcTZCX4YiEn05wQtkwXXxXyPWfTjr5VSUam9RQKzvL6dcmgcL43Wzkv4SrFZpbD/PQck7gRLfCMelG/hDNYGQp6gtcSKTCIF2wzQPc8SJu4MVXeMlzFu9op4EkgoF/F2MANHXmonpD4vNWJcGU/fv8B6v8ub9gGjE6suKDeFvbzHclbZS/vE130s8J4krz0LJG62hJfObnqkSLw5K5TChp2TZ7SW6Wn2PJBClR3us0mzSumZOc7FyER2B3TRKiaAD6cD83NPA2nexL2cnmMGb/B3SjryBni0lojq5aZ8xo60E3msuIqz5TolWL8fO7w2HdcouiudU9d0shxfAAmFPMNOupPYL9IpycmqQdfy9t3hHE7P6dYSwwxEVsMEbY8wJV2o+8TmfbSMmTb9S0OVHa/PfAMkFIakTH973pk1XvMBIFw1oITt0gl5m7PGAkZp7KBwdbhxYL44rHa4MhPxua+AhALf5bAr//NCsSMubIEPpE/HbAYzj9q3lHXjCNPyIgfQQmYsJyWXW3J4u1/Y1ZkfjJN1k5TlOyChhC827acHX95Fn3ztzMpOoGLhGQMwG9aNzQEYqUQAojSXduC1g18jHN6YKwqowwnOB30Kvla83vsSSCivilOsTOY8OFM4oL7TAm90QImuPJKgawaMTjgcB1/nkl41aeTgfNcjSQRf1+33vgXSVBy68MlsVvmSw0U7LVh+7N0xy0iFYSZEQlJOrLQs+aSCfnDAGSK4zvVrpRrBuwZ090cXHXx/vgcSN4xEn5O4tXxloXOmoWBFmja/99Y7Z8IJvgbGsSM5kpxXTTrB9xPqfVIAad74/A/3GqYhtGJeEgRU+At3z15zm5PoOKmAhIKwxRWt5b9XOBcbSKL4WM9pz6H+AKMkGXqs11DpuKQD0lQ+bJZYspPmvDbLcfM/IkcARqcN827W2W7ZSQskFPf9lgPcWpbQIs76oJIg+BVm0GefJk8aoNL9WKlLUgNpKmrG4t00bd5ucaZXsxwn/g/kgATYluoFb3Yn7je4DA3kYY2g636RoZzGtsNERJfpzTNopC8+jZ0jklk0kEFPHwlA0VoibXI8BKssADEZu+dQ+tVAhtIKfwYT0TQO4IRYi27IcY3SjQ36l/TylgOtG7oILFMDGaiNoNcHqg4ZXfiMRXvYXOSM7bJBnTQjvMsfuFXMzYqfE3DQrSn7VgMZw6OBZzoSzONPugTZqmmG4ZEDr5wClzMZxHBLyh6igbT4aN56vxpMbDSLRZBDHBCebzNPTyzX8sMxGkjhU9zAkx+sW+MvOKoGUp9gbRt/bVzeBiGsvrKnaSCVfTTJWTH1d44n53NJ2rv+D1QGWsaIPausAAAAAElFTkSuQmCC;" vertex="1" parent="1">
          <mxGeometry x="348" y="453.08" width="13.92" height="13.92" as="geometry" />
        </mxCell>
        <mxCell id="xsJzfTvv46yiWeYfg1Ty-12" value="" style="shape=image;verticalLabelPosition=bottom;labelBackgroundColor=default;verticalAlign=top;aspect=fixed;imageAspect=0;image=data:image/png,iVBORw0KGgoAAAANSUhEUgAAAIYAAACGCAYAAAAYefKRAAABT2lDQ1BJQ0MgUHJvZmlsZQAAKJF1kD9IQnEUhT9TEUSyoSHCwSGiQSPMoakwhwgaxDSq7fk0DUxfT6PcpalFaK7AxsaoVZrag+gP7e2Bi8rr/rRSiy5c7sfhcLgcGHFohpF3AHuFshlfWfZvbm37Xe948DHKNHZNLxmRWGxNLHzf4Wk+YlP3Iaiynr3taivZmXQ22hvni1fuv/6hcaczJV1uWzagG2YZbDPCscOyofhIeNyUp4RPFGd7fKE41ePrricRjwrfC4/pOS0t/KQyUwN6doD38gf61w/qe0+mkFxXuqyPBCHC7FMiKDT3jzfc9UYpYlDBZJcsOcr4iYhikCcjvEoBnVkCwpKlklXHv7vra8VLWGiCvdbXUqdwewwTL31t6gy8Vbi5MzRT+2nU1nSUduZDPfYsgfPNsj6kU1cNOjXLatUtq1OX/FdoVD4B1oJkDpipzOEAAAA4ZVhJZk1NACoAAAAIAAGHaQAEAAAAAQAAABoAAAAAAAKgAgAEAAAAAQAAAIagAwAEAAAAAQAAAIYAAAAAQzJk5QAAEndJREFUeAHtXQeYFEUWfpuBzYEgipIFBRU9I3oqd556ZgwnYkIQUBBBkoqfoAgigqxLDp6KiiIYMWflM6EnKAYECWKEDewuS9jIvb9xhtnZ7pmq7p6Z2pl637ffznRXV7167++qV++9qonbx0SatAT8JJDo9z0iXzf/UUNFZbURaVuVRo/vkqIKKwYfSgBj4cvl9Monu5USTLiZ+WBma8rJiA93s5btqcOJJYv6RiQkoIERCak3gjY1MBqBkiLBogZGJKTeCNrUwGgESooEixoYkZB6I2hTA6MRKCkSLGpgRELqjaBNDYxGoKRIsKiE5zMuTrzrGanx1LlNkvgDESpZsbuO1m2tFm5dRgbClTooqAQwZMJ43don07xReQ66HJ5HV6+vpOsmFQo3JiMD4UodFNRTiQPhRfOjGhjRrF0HfdPAcCC8aH5UAyOateugbxoYDoQXzY/GOUntQ9bVmDkljuWDDK7iGM/gOqZTMiUmSKzbTaTe69imdPXZaSZ35C85Wq5WVu2jL9dVyreqn2gggTUbqhpck73QvrV7/h09lchKP0bKa2DEiKJlu6mBISuxGCmvgREjipbtpgaGrMRipLwGRowoWrabGhiyEouR8hoYMaJo2W5qYMhKLEbKO/J8ymYdje+XTYe2ctRkjKjlQDfzny2jtRvFvKKy+jjQSsNPjrQkm3XUtW0SHdE2uSEX+oqlBDKaiQ/qsvqwbJRviLcaqBZ9L+okoIERdSp1p0MaGO7IMepq0cCIOpW60yENDHfkGHW1aGBEnUrd6ZAGhjtyjLpaNDCiTqXudEgDwx05Rl0tGhhRp1J3OqSB4Y4co64WDYyoU6k7HdLAcEeOUVeLBkbUqdSdDmlguCPHqKtFAyPqVOpOhzQw3JFj1NXiKINLNpUsXvYBl8U9LL+YKvbUCdeakhRHcyN83le8xKvrpngdAUM2laxO9gFhFYoVXLOhkkorxIHRJNnZsQRiXAUuVSfOLrkpXgk8Bu6AvhtdEtDAiC59utYbR1OJ7JwmamPgQJabphdJdfKg3ASaNDBH6plghUX69+m3e2nhip3Bqqp3/5K/p9IFPZvVu2b1RdsYPpKp5XlV9qSetgc5wrhP6wc+iszZRWV10ryedKT4D+NpG+OAPvQnBSSgbQwFlKAiCxoYKmpFAZ40MBRQgoosaGCoqBUFeNLAUEAJKrKggaGiVhTgSQNDASWoyIIGhopaUYAnDQwFlKAiCxoYKmpFAZ40MBRQgoosaGCoqBUFeNLAUEAJKrKggaGiVhTgSQNDASWoyIIGhopaUYAnDQwFlKAiCxoYKmpFAZ40MBRQgoosaGCoqBUFeNLAUEAJKrKggaGiVhTgSQNDASWoyIIGhopaUYAnDQwFlKAiCxoYKmpFAZ4cbfj03fSLn7Tq1j6ZDm2ZQC1zEiknI944rwFnUrzx+R766ddqio8PzXkTR3dMplOPauK6OH37Z1V5XmY8/a1LinEgy7qfq62K2b6e4PfqdmuXTOhvRur+GzW8z3frn9VUXF5H7Vzcv+sIGLkZCfTSlFYBGTqhawoNvDCDvuEffIMQ3aDTj2lCxx2eQj06pxhCcqNOu3Wc3K0J4c9DvxbWsKJqaD2/CG+t2kPfbhL7oTvP82b/W+clUL9/p9P5PVMptUloXi7/dh0BI4VPnBFF6VEdnP9IXu/TUxlk6dQ6zx7bnQ9NolXfV/rLwNXvhzRPJPyd0r0JXX9uOq3eUEWLX99J7/5vj612+l+QQT06OZedbOP2JCzbisPybVokGmdfHONQQIvGNqdl7++imcvLpI5ccsI+lNqjUy5hJJn1XDm99uluqeoiAQow6M7YLtXV4IWb8XDpOUPinBOb0bKJLckpKDytXn5mKq2Y2sp4oz3XrP5jhHKLMIpMGZxDM4blUlaakmKv19W4fUz1rij05feiWp42EkLG0YKXy4232L+BdP6t08l8Os/pPQ7YDv5lov270sAIh/Bxcs/IWcW0Y+f+4/Fg0E4bkkPNs0IHyHD0y2kbMQ8MCLCorJZGzy6hU7qlEIy9EK2qneoqrM/bBsa6rdX0Nfsofvqthjb9Vs3/qwlnZ3Vuk0TtWydRx4MT6Sheb4fqJ7s/+66S1m2t4rZraOPv3D4vD7G273hwEnUw/hIJS+WDeW53myqr99HH3+ylDdzmxt9raDO3v4WXqC2zE6jjIfvbR/+xjA2FPYHR7RM+FG7jX+1vZNlv21FrrBDbHbRf9p3bJDuaCqWBgXl/+jOl9PYXYsuvfxzXlEb2yTSWcG4oaC37QyYtLqXvtwT3DyQmxFGff6bSTZdkUFpTdwy+Nz7bTfnLyghyCEYA6uCLMpiHNEpwYWaqqtlHT75ZQYv4lECRE46xmht5ZSb1Yh3IkjAw9lTuo/kvlRuMgUEZSkqMo77/SqNBLCS7DpptJQBkGXtR5ZZ74BNv7ZDeGXT5mWnsfZXh/EBZABGABDBl6bBWiTSqTxbBMWeX8CI+tLSMfuNlryzBMzu2bxYdzn4cURICxpY/amjwtEKhtyRQw61yEmjOyDxjuA1Uzv8epo3hBUW0e68cIP3rwZK3YHie9PD+2Gs7Kf/ZMqpz1jydd3Izuu/GHKnRo5pfwjvmlxheVP/+yHzHCzH6qizqe1aa0GNBgfHhmr00Zk4xYcRwg+CjePDmXDrtaLG3B0PnNJ66ZM67DMQnvKY4OF7EY1vLs8VdC0voVUmnVKD2Ac5ZI/K8sY5AZXHu+c3TiujbzfKjlFW9F5+WShNuyA46cgYExpwXyo3pw21PB6z+Ef/JpOvYZWxFAMKE/+6gF1fusipi+zrAmT8sz+tEM6uofFcdDZ1RRGvYpe02AZwLxuRxwNHaMN7Mo/SgqYX0J0+hbhOmloLhuQHtLlNgYHTAKIHRIpRkNbRCKcMLiqVP3JXhFUPrGB5arzIZWrduq6GBU4t46pSfz0V5gDEM5UBJ/uTW1Olfr+93gBLgtIo7NQDGL9traOhDRQTEhoOwtBx6aQadeARC1/sIZ3PPXF5u+BbC0T5c7wPYd4Eg35/FtfQarzoefXUnYUkaDsKZ4jDMO/ASH0v+JW9X0IqP5Q1sO7zCiffcfS0pK72hRV4PGKW8Pu49blvYlGKnM/oZdyUAX8v80XkNKq0HlVGzizUoGogoui9ghDZbgnutn69+rKRVP9jLVUAUElMBMrRWfb/XCG2HS5z4FSLYCYhxlJTX0ger99L7X4k539zgEVlr8BF0YR/BVp6GZz9fTu/ZzL2ww885JzWjAeenE5xZ636uoslPlNKP7JWWIcSLuvvly3inEjiv0CkZwm+EzOSlF9zgvrSJXcQjZ5UQXLWhJNgH9w/KodzM+m7Fj9fupdvnllAZG7GhpGvOTjN8A/5tPPVWBT3wVKn/Zde/j++XTZee0TA1AI64pe9WCLd374BswjLWl7xTSbaJAeJb0P8zlLKcDRd/UKAcYiVLxregs46Xd8X6t2P1vT+/JQvGNG8ACpTvydlTy5i3rm3rA9aqLjvXkVsBh5EZwZh8/K4WpkadWXnZay04JrNkQgtTUKCucddm0URWtigd3bHhysg7YnzHTpQ+E7YL1YWUtdvYBy9C8BrClesWYeqAUkT9/+Mf2UEvfOSeLwSjJLynIu7lwtJaI6Tvpi/keF7eTh/KyT4CL/IPW6rplvwi2s4BNiu6iEcKMxB5gYEHBzxQGDAnMpljHvcNzCZkVckQ7Bf4JWR+wdCsfvyKUcGteST7a0ZI55vyZCnBveyETmA7asYtuYREHlGC9/SBJaX0zDviQ7tV3XAIjrgiM6jX0vd5yByLCrNcVyzR5/GKxCzAWA8YsA2un1RoqkCseWfflkddDrM3PINBxBue/1D+7UXScf/z0qkf/+G3UO3QzxwWn8oKWvm1vNMuj22YYZdnNJiHZfiAYX8/G4Z27C4Ytndck2UY2DJt+paFB3kJ2z5Il4Aur+iVSteek05NU8zlWQ8YqAjgQNIqvG+e0C6cMIgOytohvox5PiNvAobZ54LZ2mh7OL8lbmVUIY8BCgJQROhG3voAq99KgCJ1+JaBUQgjX2T0hLzRd/y4XripATB8GYDdgZCx2VDjW87OZ8QAsLxau6ma0M53vP+iCaO362HJ1L19Eh3JG2uwFPRsrLHTRqBn8Obi7cEmobXc9g8cVod7GLbDEWy0due2u/ImqlD9KC/6jD0n4AG2AF5IJBkdiXZ5VIYcQmk8B5IN7gUERrCH9f3olYC4FRW9MtA9M5GA1/Npci/oJQzHG//KucRnWOBGzicPich5RIAsVIQf7UXQaRPnXKJtb84nci7Zj9LhkP07wkLV/s7ddbThl/05n5gGYLO05EQk35xTt+wisz5gCWr0n+WP//iOHJN26DvLvRP334kJID2VIE9i6XsVNJdzNYIZUJnIeeR8yyt7uZPzCAHt4iyu+S+W01MchQy2/ERoeRTnm57Rwz1HG3I9ZywtpTd5X2owwi6yO6/NFvJ5BKvLcx9xjSlsvJvFNzxl8B8bss8/xb7hLgUMrCQmL94hHZKH32E0r2pEs7Z8O+j5jLS65eyPmP18mXcPiOdesP/IeYA30MkIhhyVhbxB6QnOKJMJyUNBF52aaqwucAKAXULO6wxe7r/OaQEyiVMwnrHMx6ZoGUNaCBgQyt2LSoTekkAdRzLsZI5tyDiIUB9yRLApyOkxA3AQIWtalr7gINPYOSWOIs9QCnwRdpaecI4hOOaE4EZ/cEiu8AbpoMDA0IlEYCQEu0HYcvgwey9FXMpo7xMOiI3izUAen4pTHo7l4xPgvRT1yTzGO9WNRGCX4nGXcdALAEHmfDBCNv49nN7oVuIOtjDAHyWSEBwQGHCjjphZTDC03CQR1zqGy3lsS8zjqK/M0CnCJ4zCmSNyA26Gwig5bkEJvfNlcFtCpE3fMtiEhfYDGaeYOpBzKhtC923H6jNCGoiPwKNsRZbAWPzG/uCXW9nZZgxgIw7yLv034wCIo3noxmgRKsIbe/vVWbzXpKFXEVPXEE5vdGuUNOsDRiyMXBjB/AkvJOIbwYx7/+dkvsPeQojDatO4KTDwprg1fAVjFgzC7evZjAOffsGy8OZ83nJpppGogiTkJzmeEO6czyG9Mw0FYTMRMvPDJXuMWEI5n1DiDfcXhjQ72wooMI5gRzjdVGRVf7DrcP2Lxk+C1WXnPl4Q+GPCTUI5nwhuIc0rEgQHTaRAgf5GEhRoPxKgQLvI+cT5aP7k9XxiLwVS0uzQ2Sc0NRJnkPP50Zo9YRsKPbxiGQpfBXI+X1y5m1avDx+44V28gaOvRs4ny/BRTkyC4Rguwkk9fTnF0JPz+cgrO6V3DWIw8D8jzQsMu9b3Pf2z663NARIcrXj3oh1SjiA7gkSexHQ24HzPqYKfoIDP2MKO8FATIsA4Ogl7cj104anNeFvjjrAkBCMR+F6Wv8dx9Xfe9nkuXxvJK0lEbUXJ7KgGrytONt8ASnma8w7NHDZg7pl7Wrh29IFZB5EVvmxii3qg8JQbdlmmYXHb3VnvqSfQf2TGo/++oEB5jCD5DBZkWoWSkJk+9aYcLyg8bWHkeJbPLEMeiyghvcGfvKsSzDWDHizyv2/6HcMOssODOYlgTCJb+yMbWVOmDf918WoeOrHMDUZYdt76cLERYAtWVuY+NgWLHNyGEMIo9ti6ma2OXM+HGXh4MYKRiMcUidPY5O1PXmDgRt97twcNzkAgEIwMIcYwk7PCnBLS+ibeKJdz6pY7H7xjlCxgxxRO5xUlJCQNZ3CKHPQSrE68kJi6AjnG/Ov4+qcqGsH5tjhOyp8Q5Hz8ruZGVr//vXrAgGXcb7J5zicevJNduVeyU8oOwcCBvx/hcTuEY5Pu5EAYtibYoZfYP5LP/pFiEwGJ1Oc0vRHpfNi7Y4c8Oa+DL86w8zgb5XVGvqvnjFFMdz27p/BhMpmWidX1gIFWkVsw6fFSQuDIQzjHahK/qWZeOk8Z0f/IecToAWeSCKHt0Rw6F90uEKhOI0K6olzKMIVhO5Y9pG6cJSYTsvf0w82cV0ztWJbDaA5GDYDheQCjx0o+gKxdqyRHh3x56vP9D5f3XI6D4FAUK4KljeORAp2hYfVssOs4pXf602UBj3GGw20UR2Jh+btN2E6B0XM9J/pYEfI9x3Euh/8y0qq829ctgeF2Q1b1YZiDcYYRBCftI/kXf2ZLKKs6nFzHpiC0jT8M2Zh30b5saoAdHuDQ8/R9F7/NqTzEZ/J5YRm8bwWHu0SSIg6MSHZet20tAa8fw7qIvhOLEtDAiEWtC/RZA0NASLFYRAMjFrUu0Of/A99BneFjlGZLAAAAAElFTkSuQmCC;" vertex="1" parent="1">
          <mxGeometry x="408.69" y="453.08" width="14.62" height="14.62" as="geometry" />
        </mxCell>
        <mxCell id="xsJzfTvv46yiWeYfg1Ty-14" value="" style="shape=image;verticalLabelPosition=bottom;labelBackgroundColor=default;verticalAlign=top;aspect=fixed;imageAspect=0;image=data:image/png,iVBORw0KGgoAAAANSUhEUgAAAJ8AAABTCAYAAACBMdUvAAABT2lDQ1BJQ0MgUHJvZmlsZQAAKJF1kD9IQnEUhT9TEUSyoSHCwSGiQSPMoakwhwgaxDSq7fk0DUxfT6PcpalFaK7AxsaoVZrag+gP7e2Bi8rr/rRSiy5c7sfhcLgcGHFohpF3AHuFshlfWfZvbm37Xe948DHKNHZNLxmRWGxNLHzf4Wk+YlP3Iaiynr3taivZmXQ22hvni1fuv/6hcaczJV1uWzagG2YZbDPCscOyofhIeNyUp4RPFGd7fKE41ePrricRjwrfC4/pOS0t/KQyUwN6doD38gf61w/qe0+mkFxXuqyPBCHC7FMiKDT3jzfc9UYpYlDBZJcsOcr4iYhikCcjvEoBnVkCwpKlklXHv7vra8VLWGiCvdbXUqdwewwTL31t6gy8Vbi5MzRT+2nU1nSUduZDPfYsgfPNsj6kU1cNOjXLatUtq1OX/FdoVD4B1oJkDpipzOEAAAA4ZVhJZk1NACoAAAAIAAGHaQAEAAAAAQAAABoAAAAAAAKgAgAEAAAAAQAAAJ+gAwAEAAAAAQAAAFMAAAAAdMCJbAAAH75JREFUeAHtnQecHUUZwCc9V3O5XCpNRCA0C0ovgiIgoqHXSEAIJLSEIkXpBBSQEghVQKp0kGpQgVBUUKoSREACkoS0y6Vc+iX4/ffue+/bebPvvbtci7/9fr/3dnd2dnZm9puvz0yXLwRcCmkPdEAPdO2Ad6avTHsg6oEU+VJE6LAe6J705r/8c6l7eNIiN69+VVKWNL0DeqBXjy5ur+1K3Q93KO2At7fuK4PIt2TZF27M+Fq3bEUqDrZud7dOaX8WwrDROj3cxuv2aJ0CO6iUINv9bFZDingd9EGKfe17nywvNmunzRdEvk5b27Ri/1c9EGS7fgsP+165O2t4lZ+cXrdjDzz558Xu57fMbcc3tv2rUsrX9n2cviGhB4KUr2uXeO4u3rXe/eCzFe7O3y90A6u7uSP2rHBV5bm4/HntSnf3swvdclFejtyrwq3dP/eV9UtWubsn1rtPZza4EVLOJl8KC9J3P1vv3vlomTtgl3K37Wa9tBqx48RXF7s//H2J+843S9ze24c1wtfeW+YeEU1+0/V7uCO/XxF7Xi/+/d8VUb0HVXeXtpW7yrLctk2fI22buNCtWPmF+8kPKtyQmty2LVwsbZN6T5vd4H68R4Ubul64bXdJOf/8z3K3f0Lb/G/gfyOttz1+8nmDe+HNJe7v7y9zS5dnlUee7V/VzQ2Rb1Fd0dX1lV+/Pt3cugO7u8H9utki2vQ8t7ea8bozb5zr/jNtRfTEKrHIjD2oT87T4x+a75756+IofWbdSnfd2JqcPPf9sd7d+LsFUfq7Hy93T142yPmd/afXl7grfjsvyjPpzaVu0oTBrrwkjhD/FeQ9Q+oEkH8T+dAbrBX/2HyEk66eE32Mia81foQfiOnCh7NuMm0TJ9DJB+S27eoH5rln/7YkerR2/ip39cn9/GLcvX+odzc1te2dj5a7py4flJPnjzJYfnXf/Cj9xbeXupeuH+J690wY8TlPxxNoH/35hLBp/TbxHPmvynp3cRut29MN7NvN1VR1dQPkOIhfv+4yuLpF1/lLKP5uEPmyY6SpoJwE50A227h3p4S1r8kmffLHjYjqV2/yJ9l0EAhq4VOa90w5yxu+cB9NbXBf37BnrKh/CuJaePvD5TnI98mMhhgVANl95Fsh5du2TZ6SrZ8t36Yntt9opbQNKu8PGttHIA8c5asbxNvmO0EDn8Qtk2dH/2qOe+Pfy2w1m3W+aOkX7q0Pkp+n7nCdb2zUy20wpLv7yto9WoyQQeTLGXM5Cc1qT5q5FXrA5wShT3Lp3fNWC/GKqSaDB67CT6GPiCQQgm036+123bIkopB6L98xiHz5Hkjvdc4emCUizWMvLYpVbs9tSt3uW5e4Lb4sbFTk8hDMnLvSzV2wys2Y2+D+9ekK+S13U2etdJQHByoG5i9a5RAX+F127zy309d6uzMOq3LrDcqPXvnvFvPmNE+n6IFJb2UpERVCRj3mh2FlylYYpOSHkgfVsoCHC0VphiiNiAzTRMH6aOoK9/H0FQ5FMglefmepe/39me6BCwe6Lw1ORrHkO0klp+mdsgfeF6plYdcte9vLFp3jR/7ykB7Rb/st4kXAft8VGR75+3XRpp/+y2I3e14WIXHRnnJdrXvs0oHxB81VXF1supEjzOYkmBLS03bpgUIKB4qUhZBJy95f3XNVPHYWFnvqwX3cc+MHu1vP7B+Za7RslLY7nlmolznHIPLl5EoTOn0PIKMpVIndrlcLTTVaRkuOW2/ay111Utzc9Kgnh9pyU7Zre2MNPseGqjBADMhJ8LOb5zrsiu0VsYShO2Reon4p5Uv6SmtQOh8XG59CjXgrQoAH5SmRzdoL8bQOCxZl66ZpHFPks72xhp5jKrHQr0/4s6KldgRUV4brk7LdjvgarfxOH/mqK8OUz38tZpAkKunnzXddL/bA98UXroDpZp0BjahFxHWSqzCIfIU0K31Jeuy4HrDfqG5hVt6jRgQKhMBnfkdJoMe+O5eFsjYrDYq6z9kzM89sI4rHuJHVmeukk2Ati3HlJBWYprdPD9hvhIfBQr8ENue75GwZ9vnmnmMLtDBtdnww2Hv2PIh8dlSR2R8xtoD0vGN6wH6jOk/mqyoPs13/O9oyVrcVhGgpTBWvSDEQRL5iHkzzdJ4emOdRvj6BuEpq280LAlzgPbc6LVpHYgEV8BcXA0Hk8+qYE1tXTMFpntbtAZ9F2m/kI1GSzOcHF1x5/3x30W/qXN3CONtuSc1VwdBn8QUXgiDy+eQ55buFurHt7/ss0n4jH/kIcQrB1ptIHJ4XA8nc7GFnzYiCXrEXthTWkkBTCwQkFIJgLfM1tFCB6f326QH7jeZ7E/txryXB+DE1bkMJALXAwgCEQm0/aro74ao50RQDX4mx+UPnRDxbyBf1ovmSa6k50mOn7wGLKITB5wMQ897zB7j9vh02sRAOdaGw4p2On+6OGDfLMbekGIo4yIsXnDO/sNwXRD4rT9AQX97I17j0Xtv0gP8N7DeqX5Jlwv70g1BtMPpe8JO+7ukrBrlDditPDEJgGgJzS3Y9+fNo2iY+4cUSZh8CX56cPa8wC8+qKKES07Q1ogdsxHGSphtqCErCz35c5cYc2Mc99edF7qEXFkXzR/y8+I2ZN8wP2GpoL5lk1MPtsEVvt+NXG+MGfeSbY2L7/PL0OkU+7Yk1+GgVjgpvRl8xzYJVH/zd8uiHm+zJVxa5p2XGoe+207KYismPmXlQUZDwgF3jbHxWS5Evh7DmJGg10mN79YBVMHinfhJfHistyS/zFarvUKFoQ2X+xU/lx/zm195b6v7+r2UyXzo+M1DLYbbdc28siX6axnG2CfGy6fY8SPlyqp+TYItIz9ujB3yZTz/JwsWKho21qCwNivEtqiI+Wn4AphOo4V/fXVbUDLkZYmi+5K550QQm2HQIgsgXypimdc4e8ClfRSsin23xWrK6wbE/qpSfi2IHYbss1facTKEE0ULwwHP1jh9LubGihb+mYBD54mNJis1JCL0qTWvLHkhiu772WdpLaWLb1YYQfRQNfmceXhVNMn/8lcXu0RfjUze1Biw9wiJHUM9R+1RqchpMmumJNfRk8dK4SaO0BQrH6jad1Qsw3Ry9d/6pmj5yBgWEnLGTk7C61U2fb24PJMl8TFG0UNIOlM++z5778uahYkO0a+XAnm3QQRD5VsXb43ySb1+YnrdPD/jfQL/REjN3g5qUdMCsNe2BMo/qbioT0YfvXq63o+OHMulcIYh8SaNMH0qPHd8D+o3sxCFq1R4yX1LrK8viLLJevCE21IrnbLRLEPmSCk/TO18P+Gy3W7c4ArRnjX3X3kKJF6zxJjPZ+cUp8rXn12mDd/nTIJUitsGrChbpy3xo4tUV8WgXu6RGinwFu7RzZ/CRr3v8W7dr5X0b4wKZ1eaHd9nA1aCdr11rnL5stXqgwbPv/v7VJe5fZrFNv3B8sQQfwCI5Enga/eQ8aYqjX0bSta9pqwEc3zGLTgI2CCKIfL5m5Sm/Se9O09uxB/QbNch60BZ+L2tStxRASNZlXk9+X5ZVRzeXdf22kBVS/ZVUk8r314dRebS0d1dBvsZRYsO/gsjnyw0hEbarMGxGCo5lwOf3WkEbZVFRGirJSePi6b7gSlm+Gu9rVuTxO8lnA415vHcF3FE9undxLA+mLK0yqd4mPfSu6H3S8Rb8OjbWKZ4nqSxbjn6jlR7ls3mae050DMsE87PA0rfbyVK4O32tJHEhdvL3lj6zoFTZUlSrncdbbZ8s4vwUWRoLoLNG/jDrNrGPjto3mx5aMJy8I2RFeJ13cOohuQtvk4fJzbrS5T47lUVrxpFu4dtf7+2+1eTE5siqnD6wdJhG8TJjn2DKEIxtahv1OjqhbSfsm63rmMCC4ZQ7QiZmKzKdmbCXybCdSjNLi+2/S5lbP8+Cin5d22PHWhaEZEX9Yy+f7bY5dppjsXT8uj74lE8Hr01XYsWzXUL77fKy/X6enYF+uBgK8eGFAH9dlWg0+cK358nsqAaxiuZbmgESXbtgZXCrBPte1nyzVnN7T88xZPrzFPSeHosph/mnaGuleULTi2kbWt9cWVWg0Jp5+erEAj+sMKVw8TF93TAZhMy9IK5O4RTZEWBzbzFxvceRfmbOB1SO8HvsblNlu7NPZX0/G45vn0k6Z64uwQIHfac8sw7zViOnZRYtYlHze84b4A46b6bTxStRQF6aMCQqMsh241KE5MtJyFaHaIdC4Gs8ofwIq4U+Ds8VQjzyFEK8Yssppj7FtA3kLe1duJ/ytU1lPOoO6CexLI30DWVDwKQQJu7nAxSEKdMFEQUhWdoM9vsPWdlKFQf/Wcwmtz+9MPrt9q0Sd6jsVAXrVdbKqqVAd2N7ZD8WhWCPxDm3c6z9RghNCh3XA1M+z7qlqAXIwTfxt6RVWTBfTdl6AbbJcrbIZci4bODDfF9C61mb2W6gA0Umju/lfyyVYy675V3+CvWkrWiaPWnNPzYKJ4h8PGghVLC9n563fw8oxSn2zSwY/vwbsnnO20scokI+gJVvtn5Pt7ew1MOFmkGR+Q3fozxi2y/JDDdC7Tnmg0VN84CtS83ucBREvp6e1pLvBem9zt0DrCB1/m11iWHwSbWHOvK7/amFUQzegU1zNBCP9hBFjh8G4ycECZl4ZBFMyySKZecTpseoM0itENR2sfVg50lhzesBKxv+QbbmOvi8Wc1GPNtq5LqL76hz+/5sZo7xGjaNpYItva6Rrb9C++H5YgF7gigkYthw2aSOdTx8IKZ/k/V6Ot+a7edr62tCihCMX5fJLf4EZTRvwrbzwe9eXpSzlwQ2OBa1hsV0Dw7LfCW27j2EdbbBYhK3DyhUCPjA2zKxx8phKvNd98gC9+snGvezs89jv9xeZpt9VzZG3OUbvTPbjLGJIf34hsiBsOi3ZM6uBeS+g8+f6UZLJPJoYz7TPGy0yG/P02a46XOSl8pQUxjPJSLfjY/FK85HuXx0P5e0xKlWoiOOmBqQUxRw5Wy7ee+cdUn0PixCNxrUtKRO1fsddUTTvOD2OgcVU8AExA6eEIA7ZNdPi3xQvl/eM8/9Vjb/sxDZYn9U4Q7ctTxoFmNTP36YR46SHTRRaC6XjRZfESXDAv2GmSbJZsm+dfnAUsIg8rFLpI0+gBKwx0IIsPMxre7fMkqxF+E+YRtNttDENYNs0BxghDEVj7U+mDeKoRIhFS2McG1/oRvKxg5Jo25+PDtg7vtTveQNr47JPQsHfacsOJrJw3byb32w3LHPxYzahiiwlraxNsn2mzdugGfLKnQOovwtotarXJ3YNbsIhR0quzxusBaiTg+3kZhKLECNf3VCPze8dlZk9uAetjpkLeba+oBy6IerQ21+Oao6s0EfGufbH8p0SDGj8M0Ic1opOghsFOqFsR4D/A2n1URaMfZFGxBwryD2QPkmoe1irbsPp8D3tipxtz6Z3YuDerM9FhA0Mo+8bHY0Z1Mbxt4KSuZJo/IPvVDvmDSCQTof0Hl7yZaiJx9QmSHxofwYUdmXN59TnOewme21balj93PcPgogKSS/1qwR8sK1g6NBoHk4Uvfdxn4es11Num5IjKLDNu5/blE0Q9+WZ8vRcwYF4eJogvmAAY2GCivNB3CWUw+ucj/aMb4NKza3wy6clXmUfXsfvGhgRPmukqXOkgBvDvMrAMwrD4tywOAuBJhbRg2rjLbFgh2fNmFuzm6UN/20RgZgfKejHUZPzwQPMJAeHjfQ7XyiKB1NGjaGaTaMAXIkGzqeycIKjAaLeBgd9z9npmNtt0KIRxmwjQefr488JqGtOIlyOOXa2sh6XwjxKA/kYVkvPDC3GJkGWWaY98EeeznXyc7cU2s03VMQ2YoS1HWYrC/MzjmFEI/6fCaUA/Z05KWzIwpCmgXad9I1cyKXVCHE4zmo/Tm/nuuGXzTL2ZBznPx2E2w8BrDGfLC5aJYgHmzy9Otro+1Qi0E8ymSTaGQ82oZn6qbTa3Ko8rg7sqKO1kMNy1z3FPshYKm55ag5yPfIi/EPZheMhmXQKbDa5gKk/Sj5QFA4BUYD2lixHaLP6XGCCNVMyVOwdSXtd4Hdb3yWtJ9ZEPvah+e7cXfOy1jotdxijm/KHrf7y4CYYhACl9UBMlBffCsuNxVTXjTIpTwUIwV82hYYSPng4pF9owk7UEwrM+Z7xr93j/h04YQEksCGETkUkD0tSyVdvRuc92yaT+I7LbgH5Mh8/sfRBjP3cqxQKB/YZ3X3rUrdlhv3FIG1u7hSXLRl5lsiUzB6Xp2cpaI8i/yAKQfBlo3h/PV7WWoLarSjaGTE/yPvoSBgr5okH3Hia4tjKyWxeM1g2QX7xP0ro8ADZELV1HiOjYuRFQGQwW6sTH3VPICtyu9Invm+1AUZiInPuNsIkGTB61cnN9blY3FHKeAbZRfz+y4YEHkORsnGy/46ddi5dhc5CDlsbWHZuMegntQLec3Xbs+7tc5tvE4j1cPr8AvZU1fhcUFMxI8QEDDRT7ZEwK/qT+rGm0Efs8YKJjVEBzgK/fMnYcnsVG65A5zwbAkmQPy65Ni+btQVczKvhPscsltZTkQRGXrmYFfmsegkdhsKZFkNiIXgiYALa+Ro4edHVAWF3qHrdXXIJMhC7HrD1vOWWp4oH2gHkRV8NnyyrJZ0TGDuJ8jKb5dvlDgiY9jUeKKJW6MDtpJVNzED7SOUTJGPurLduyLfM+YZ7hFNAsDCsGVZQLu/+JjqCPltev+e3RxyC33DBGj2uMWIqwDCnzahVlhd43ahmk6Y2EVH940Eek3TI2yJH5SbAXvOr+sychN5TrluTiTfUQZIo20HqVBeQjBStjvFAuAjHkoC9faDJbiGrfNjxtlPb6h1fzPiFwPjERF3iLrB4MxgBYhSeeavSyS4oCwHP5TtxrEmW9sY22XbSgsaenTNg/NjFIpOuFeiFay2hUCMLHa/aJKs66aAxnvLGTWR71DTYLc+y2BhGot4UEQGw29ESMeNoxEXjNrLR1dHiKjlcYSionTssXVpbL051pRTgFJYUKp+5o1xik6dJ5xSk0E8qAKjH7MGlNbKbiAM2qgFqD1asgIhRchMaJIKyLdwGcxEDEINP0LQp2/tkmPY4AhjAqyYwLVvCiENRGAQ+H18ybHVjpA1RbykPkbOx7ph/buUO+HRRmuCPzlcN5m21JL8GoNZkO0iGIPdCrAD2CkF+jsH/uK46siMQt4Hn1/kkJUQai1g6MUYibEXsn6pPHP8lVlybfOi0Py4SVuEvZ8rArfd0Ubzku9CoR7YrC49rq/IU8vFoNkYTYkgC6LRYWjD2iHUix2wu8kw07yUt51QXlg6H8/KaZR91Yn9MiHlrNLJiPcBlg0lg0ISN3j4h+Wx0Cab/2yJ40NhAIg0xg5nTRekozBhXzte+gxuc7V4DA67IKvdUk/kQMQE6u2zc8pQGL57RfQOveYIe9a1Uorv4+rG6BYRCQC4IgMGokQ9VKRCZIBlWzML+TWOkfMQZCifL5BiHmGETHxNdig0E5PpaLXTQHrH3VmXg3i8CEMvq1piEwJY18NqzVGi/EEVzhnRaApgNjtKSQjxyM/gQI4CMOFALS2ogrFPEzvVe3SYL8vu25THTx9zYGWG6owZXxtEPMrFKnCMCOJaVxZYtFqzvhsZVDkIlPxMEUF8xCMvlO8mMeCiRAFoqn6gq7JBpdhRRu8Pqo1y8BcTfUIfq1eiOX1M0acdmg2Y5VoXiNxzm7gpiIHhr5hV5kWo87yFDPI96bFcbSBrs1kY0eS2giJedX9W+LV57Pl1QhV10gjGYB+G7ViW+WjjH5ofE3T9vFzrzomc4yKyawEj/yCDIONp1DP5kKMsVVfZiXu2fVBrAiMBNHueKwRX3tfYB3AKvAc+4PtUsMqCpvlH5FddUuKIPePlsVYeoLKq/yzXUP33miiV3ocbaKR4c/v4mxv3ygSKUh4iAtwEF6uF9z9dLkpLnPvZKRQ2r55HyIdQiqlAAeEegRqwsguUkJEFMEtKZyRxjdaEXHP+UX3FYp81/iIvPdvkGqIhsBcLqm2CoNYMQx4UmmvH9ssxuFo2iKJh4R9Nixjq4LH39FxlGViXypLc+5YpSwVqfQaqjRx0wn6VmcHCPWRB9WWGgjhhywDIbydMM2hoG3uUaV9HGeVPqQvatd3ZBz8uAMvXcqME84d2/uG0rAbOLeRIoKV9zHez8K4gt7U5cm+yyLBYAix0F3UW75ft49h9LojNsoCw+tURU21SdI7spoAJw8KVIifhhgN2FtPEd8d8nrkNQhwgWhKAIE35CiA64K98eYxoa6rQoOUirxH8CFgtGXOFBVhhIcDv6fs+eWZdU5Z9B3XWHbT56CDOuWICUaDuIMTaA7I2MO5hE0M8APz+GifCP/tiACD2tsdNi875e+cj2tlIMekfNcwi/oS+S+ZBOdnlpOn2MjrXPTJa2sfre3urWVOLvgziZQkY6fk8L9yPeuYZoWLFgF0HxFI9nsWmpGBHK2l20ogf9q3Xfnn+THd/nwd9l09JNb0lx5JeGSnELTZmJX9mHnZFC6qp+nGQdtGe3PZl3wVHsfNbbH+1Rvt0AOTWIfvNaE9SH7dmhI91iUY9gGpdDNSaDebW6h+v+J2yX4MC2qUFK3+pPKP3ddHptb3ysOwruUa+tJTIzhvxw6m03JYc7dahSi0oBzeXbZMvCyrFnDM/znaYEKVgyyPtHjPpBzZm22E5jE3Xspp7VHbY0j5mGkVrAO26xGyFGg1hZKubH18Y6wB9Gf5bDYOBXYIIjKRdvl7icL0o3CYRr8hJG4jsZ4283FctF9lIEUqfQ6ZE5sHyD8VUFoMtjY1IvvaVnpEHQJHUlsc5CogFTBpKTW160rmycu5PnpJ1+sPqP56eHVB4LmCBhDFhqlCAYm3ZJBP5dcEojxmHqZDY+IixU0DLfla8NUNFcLcDi/tEggDIy9amCBVUmTvKkPCHNk10kAJGdGIAW9rHvgLT3D4mVAtvCvKohQj5kNUuPz4cfuQHJUIBfiBmGGQfOsJ2OFqQj3jfloBFXFMAcwh8oDx1EWGVx3thwZdT+PiqBYKo9j7s67eyu05zAL+nTpJmIECZkfHQzDEAK0ulTCur6jtGSoycwvNiSvHhRZkzsf7gikgeBqEJ1FSADfqIh9sRGyTw0jvZvFyTjpJSCDAe73X6jEw2KLXa+JrbxyhJ9ptiu2tuH2cq4p0U5Lc7SMyahXsNtcPYnI9lYyw978hGGx5lhIR8TBoanYFdS6mkfac9x0qvMiU+SAvbbRYP77H3ks4ZkRY01o93YBjPB8Qq4kIEaENoIvUDEpqlcO6RVZnJ4Zpmj1BR+867Jsbbpxuu2GdC52jJWB8U0LTVHtncPla7o5aFn7u1oNsFAvkKGyxaXOTzbZL32NyDuarE4rPQDAZUpmV+8FmD03AaPhz+wwuPrs7Yl64VG94kTxbU90Jx1BC7hxgvkREJ3rSsVt1Y6qelM882k6gp6xxB9LWkvs0B5BArPjDKdxUWCSLAEWAViBqW/cF2Thfj6/FmxQL81SHZCPNGg4iC+J3LZOkMTEBQb+RIVSxwGeLdYDCr0M9AtQZwbJN4d3ylJqmt3SWcycqpb0pA7L7ybubQFtvHRONcLa5VCxfJZHUd/Da9JefBYFK/IGxZhNVYwD7lBzza+/b8VpEHQT4LsEhkGgVkossk2tYuraD3/CN+0dFXzo4hJ7as8WMKsyS/LK7pYHzICiDeDWKztPZKvecfkeuIlbPRKLTBeoV4Bp9qKPLXL49rkI7QeQtJQRw2j39+4LkzY/LpzhJBPOHUGj9b8Jr20C4bTAKB0MDU4EPNTCwK+SgTNxp+XAvIc8fKOiZJQjAsFZeRlRl4HvkDOe9Q47skHS0W3yYhRyEkRJYhyNOvB5T40UsGxswVlFcsINcdcv6smJDOs8xZPUI8FPhSfeCj4Eu+/tH5OX5WQtaxDFwhgZgWMEKzdk3IGE0+7GQ3PxGfk0E6hvhbzujPabMApYNZZxYwdWAoxzsUApSp30gfE3ltATvmI9LH+ZZFsfmLOS8a+RjJGHCtgK8vgAyjSaHV4MCHZRLZom41zccRy/hd5wyIPB1PSBg+UbshwAALMvaTsPKpYmD+ULRfq8HpM2iAUKmkD6r5Ch2JFxwxbnaONs5zhDsxvwJTRZ3MFfmvtC9pBQcCKWDJwBk3zI3iD6ML8wcLxeeLSMPyElNmrHDvSH+pVcFkjWII7z63fyyI094vdI63xAbcan4GN3UAqZhzQ0zhe8JROPoAwt12dn+36ZfiLjU/X3Ovi0Y+LRh2YGURTS/miLx25YnVMQqFvEWodksA0wesVj0rLSnDPoOmS8i7Lmpj7xVzDjU/y6xEhUxHhI66F4spw+ZBGbrihOqMl8Tea845ihABDX7kUTFloLhcO7Ymr6JUTDmhPM1GPgrBNgbCNOcjQeqPkwkpIaAc5IuQKSOUHzvjT0RAxwXXFoDv+HqJXSvWwAvbx3iq0T5+naDwl95dF5Nx/Tz2GoXrVFmiTX2y9l5Lz4mhvEbk7mIJB9SZ+EqmaLYVtAj5tDKE0SAbEFJuw8n1PpQJ7Y4ojGI0JELkCVjwPQiUxweGtWIrU5uVvqetjlAsbHdEvoQQEdGA9UwIYEWDzQdQHYI7nxRExKPhA32FRkxZSUED/jMtucaCAAK+ItTQ98UyqHk35hR/PkxL3lXomdVCPls4Qntm3q7IadXi610d4RQDMkL7CikXWdJOXLHvba9zKMd0M2/XhnK1pA54e0AEVogiOGJ1+qol79dnkPHwiNAeNfPovbY+thrytXVF0/L//3qgoIfj/6/JaYs6Sw/8D7jqWcqGODJlAAAAAElFTkSuQmCC;" vertex="1" parent="1">
          <mxGeometry x="464" y="454.41" width="24.11" height="12.59" as="geometry" />
        </mxCell>
      </root>
    </mxGraphModel>
  </diagram>
</mxfile>
